<svg width="50" height="50" viewBox="0 0 50 50" fill="none" xmlns="http://www.w3.org/2000/svg">
<path d="M12.918 43.7499H3.84766V14.5409H12.918V43.7499ZM8.37793 10.5566C5.47754 10.5566 3.125 8.15422 3.125 5.25383C3.125 3.86067 3.67843 2.52456 4.66355 1.53945C5.64866 0.554332 6.98477 0.000900269 8.37793 0.000900269C9.77109 0.000900269 11.1072 0.554332 12.0923 1.53945C13.0774 2.52456 13.6309 3.86067 13.6309 5.25383C13.6309 8.15422 11.2773 10.5566 8.37793 10.5566ZM46.8652 43.7499H37.8145V29.5312C37.8145 26.1425 37.7461 21.7968 33.0986 21.7968C28.3828 21.7968 27.6602 25.4784 27.6602 29.287V43.7499H18.5996V14.5409H27.2988V18.5253H27.4258C28.6367 16.2304 31.5947 13.8085 36.0078 13.8085C45.1875 13.8085 46.875 19.8534 46.875 27.705V43.7499H46.8652Z" fill="black"/>
</svg>
