<svg width="50" height="50" viewBox="0 0 50 50" fill="none" xmlns="http://www.w3.org/2000/svg">
<path d="M25 0.78125C11.6211 0.78125 0.78125 11.6211 0.78125 25C0.78125 38.3789 11.6211 49.2188 25 49.2188C38.3789 49.2188 49.2188 38.3789 49.2188 25C49.2188 11.6211 38.3789 0.78125 25 0.78125ZM36.8945 17.373L32.9199 36.1035C32.627 37.4316 31.8359 37.7539 30.7324 37.1289L24.6777 32.666L21.7578 35.4785C21.4355 35.8008 21.1621 36.0742 20.5371 36.0742L20.9668 29.9121L32.1875 19.7754C32.6758 19.3457 32.0801 19.1016 31.4355 19.5312L17.5684 28.2617L11.5918 26.3965C10.293 25.9863 10.2637 25.0977 11.8652 24.4727L35.2148 15.4687C36.2988 15.0781 37.2461 15.7324 36.8945 17.373Z" fill="black"/>
</svg>
