<svg id="Livello_1" data-name="Livello 1" xmlns="http://www.w3.org/2000/svg" xmlns:xlink="http://www.w3.org/1999/xlink" viewBox="0 0 1983.73 1193.3"><defs><style>.cls-1,.cls-9{fill:none;}.cls-2{fill:#fff;}.cls-3{fill:#b22234;}.cls-4{fill:#3c3b6e;}.cls-5{clip-path:url(#clip-path);}.cls-6{fill:#00247d;}.cls-10,.cls-7{stroke:#fff;}.cls-10,.cls-11,.cls-7,.cls-9{stroke-miterlimit:86.67;}.cls-11,.cls-7{stroke-width:130px;}.cls-8{clip-path:url(#clip-path-2);}.cls-11,.cls-9{stroke:#cf142b;}.cls-9{stroke-width:86.67px;}.cls-10{stroke-width:216.67px;}</style><clipPath id="clip-path" transform="translate(991.87 596.65)"><polygon class="cls-1" points="-960 540 960 540 960 -540 -960 540"/></clipPath><clipPath id="clip-path-2" transform="translate(991.87 596.65)"><polygon class="cls-1" points="0 0 960 540 960 0 -960 0 -960 540 0 540 0 0"/></clipPath></defs><rect class="cls-2" x="31.87" y="56.65" width="1920" height="1080"/><rect id="stripe" class="cls-3" x="31.87" y="56.65" width="1920" height="83.08"/><rect id="stripe-2" data-name="stripe" class="cls-3" x="31.87" y="222.81" width="1920" height="83.08"/><rect id="stripe-3" data-name="stripe" class="cls-3" x="31.87" y="388.96" width="1920" height="83.08"/><rect id="stripe-4" data-name="stripe" class="cls-3" x="31.87" y="555.11" width="1920" height="83.08"/><rect id="stripe-5" data-name="stripe" class="cls-3" x="31.87" y="721.27" width="1920" height="83.08"/><rect id="stripe-6" data-name="stripe" class="cls-3" x="31.87" y="887.42" width="1920" height="83.08"/><rect id="stripe-7" data-name="stripe" class="cls-3" x="31.87" y="1053.58" width="1920" height="83.08"/><rect class="cls-4" x="31.87" y="56.65" width="729.6" height="581.54"/><g id="u"><g id="x4"><g id="s6"><g id="s5"><g id="star"><polygon id="pt" class="cls-2" points="102.04 120.49 76.89 141.05 86.5 107.79 102.04 120.49"/><polygon id="pt-2" data-name="pt" class="cls-2" points="91.3 124.42 66.15 103.86 97.24 103.86 91.3 124.42"/><polygon id="pt-3" data-name="pt" class="cls-2" points="84.66 114.14 94.27 80.88 103.87 114.14 84.66 114.14"/><polygon id="pt-4" data-name="pt" class="cls-2" points="91.3 103.86 122.39 103.86 97.24 124.42 91.3 103.86"/><polygon id="pt-5" data-name="pt" class="cls-2" points="102.04 107.79 111.65 141.05 86.5 120.49 102.04 107.79"/></g><g id="star-2" data-name="star"><polygon id="pt-6" data-name="pt" class="cls-2" points="223 120.49 197.85 141.05 207.46 107.79 223 120.49"/><polygon id="pt-7" data-name="pt" class="cls-2" points="212.26 124.42 187.11 103.86 218.2 103.86 212.26 124.42"/><polygon id="pt-8" data-name="pt" class="cls-2" points="205.62 114.14 215.23 80.88 224.83 114.14 205.62 114.14"/><polygon id="pt-9" data-name="pt" class="cls-2" points="212.26 103.86 243.35 103.86 218.2 124.42 212.26 103.86"/><polygon id="pt-10" data-name="pt" class="cls-2" points="223 107.79 232.61 141.05 207.46 120.49 223 107.79"/></g><g id="star-3" data-name="star"><polygon id="pt-11" data-name="pt" class="cls-2" points="343.96 120.49 318.81 141.05 328.42 107.79 343.96 120.49"/><polygon id="pt-12" data-name="pt" class="cls-2" points="333.22 124.42 308.07 103.86 339.16 103.86 333.22 124.42"/><polygon id="pt-13" data-name="pt" class="cls-2" points="326.58 114.14 336.19 80.88 345.79 114.14 326.58 114.14"/><polygon id="pt-14" data-name="pt" class="cls-2" points="333.22 103.86 364.31 103.86 339.16 124.42 333.22 103.86"/><polygon id="pt-15" data-name="pt" class="cls-2" points="343.96 107.79 353.57 141.05 328.42 120.49 343.96 107.79"/></g><g id="star-4" data-name="star"><polygon id="pt-16" data-name="pt" class="cls-2" points="464.92 120.49 439.77 141.05 449.38 107.79 464.92 120.49"/><polygon id="pt-17" data-name="pt" class="cls-2" points="454.18 124.42 429.03 103.86 460.12 103.86 454.18 124.42"/><polygon id="pt-18" data-name="pt" class="cls-2" points="447.54 114.14 457.15 80.88 466.75 114.14 447.54 114.14"/><polygon id="pt-19" data-name="pt" class="cls-2" points="454.18 103.86 485.27 103.86 460.12 124.42 454.18 103.86"/><polygon id="pt-20" data-name="pt" class="cls-2" points="464.92 107.79 474.53 141.05 449.38 120.49 464.92 107.79"/></g><g id="star-5" data-name="star"><polygon id="pt-21" data-name="pt" class="cls-2" points="585.88 120.49 560.73 141.05 570.34 107.79 585.88 120.49"/><polygon id="pt-22" data-name="pt" class="cls-2" points="575.14 124.42 549.99 103.86 581.08 103.86 575.14 124.42"/><polygon id="pt-23" data-name="pt" class="cls-2" points="568.5 114.14 578.11 80.88 587.71 114.14 568.5 114.14"/><polygon id="pt-24" data-name="pt" class="cls-2" points="575.14 103.86 606.23 103.86 581.08 124.42 575.14 103.86"/><polygon id="pt-25" data-name="pt" class="cls-2" points="585.88 107.79 595.49 141.05 570.34 120.49 585.88 107.79"/></g></g><g id="star-6" data-name="star"><polygon id="pt-26" data-name="pt" class="cls-2" points="706.84 120.49 681.69 141.05 691.29 107.79 706.84 120.49"/><polygon id="pt-27" data-name="pt" class="cls-2" points="696.1 124.42 670.95 103.86 702.04 103.86 696.1 124.42"/><polygon id="pt-28" data-name="pt" class="cls-2" points="689.46 114.14 699.07 80.88 708.67 114.14 689.46 114.14"/><polygon id="pt-29" data-name="pt" class="cls-2" points="696.1 103.86 727.19 103.86 702.04 124.42 696.1 103.86"/><polygon id="pt-30" data-name="pt" class="cls-2" points="706.84 107.79 716.45 141.05 691.29 120.49 706.84 107.79"/></g></g><g id="s5-2" data-name="s5"><g id="star-7" data-name="star"><polygon id="pt-31" data-name="pt" class="cls-2" points="162.52 178.81 137.37 199.37 146.97 166.11 162.52 178.81"/><polygon id="pt-32" data-name="pt" class="cls-2" points="151.78 182.74 126.63 162.18 157.72 162.18 151.78 182.74"/><polygon id="pt-33" data-name="pt" class="cls-2" points="145.14 172.46 154.75 139.2 164.35 172.46 145.14 172.46"/><polygon id="pt-34" data-name="pt" class="cls-2" points="151.78 162.18 182.87 162.18 157.72 182.74 151.78 162.18"/><polygon id="pt-35" data-name="pt" class="cls-2" points="162.52 166.11 172.13 199.37 146.97 178.81 162.52 166.11"/></g><g id="star-8" data-name="star"><polygon id="pt-36" data-name="pt" class="cls-2" points="283.48 178.81 258.33 199.37 267.94 166.11 283.48 178.81"/><polygon id="pt-37" data-name="pt" class="cls-2" points="272.74 182.74 247.59 162.18 278.68 162.18 272.74 182.74"/><polygon id="pt-38" data-name="pt" class="cls-2" points="266.1 172.46 275.71 139.2 285.31 172.46 266.1 172.46"/><polygon id="pt-39" data-name="pt" class="cls-2" points="272.74 162.18 303.83 162.18 278.68 182.74 272.74 162.18"/><polygon id="pt-40" data-name="pt" class="cls-2" points="283.48 166.11 293.09 199.37 267.94 178.81 283.48 166.11"/></g><g id="star-9" data-name="star"><polygon id="pt-41" data-name="pt" class="cls-2" points="404.44 178.81 379.29 199.37 388.89 166.11 404.44 178.81"/><polygon id="pt-42" data-name="pt" class="cls-2" points="393.7 182.74 368.55 162.18 399.64 162.18 393.7 182.74"/><polygon id="pt-43" data-name="pt" class="cls-2" points="387.06 172.46 396.67 139.2 406.27 172.46 387.06 172.46"/><polygon id="pt-44" data-name="pt" class="cls-2" points="393.7 162.18 424.79 162.18 399.64 182.74 393.7 162.18"/><polygon id="pt-45" data-name="pt" class="cls-2" points="404.44 166.11 414.05 199.37 388.89 178.81 404.44 166.11"/></g><g id="star-10" data-name="star"><polygon id="pt-46" data-name="pt" class="cls-2" points="525.4 178.81 500.25 199.37 509.86 166.11 525.4 178.81"/><polygon id="pt-47" data-name="pt" class="cls-2" points="514.66 182.74 489.51 162.18 520.6 162.18 514.66 182.74"/><polygon id="pt-48" data-name="pt" class="cls-2" points="508.02 172.46 517.63 139.2 527.23 172.46 508.02 172.46"/><polygon id="pt-49" data-name="pt" class="cls-2" points="514.66 162.18 545.75 162.18 520.6 182.74 514.66 162.18"/><polygon id="pt-50" data-name="pt" class="cls-2" points="525.4 166.11 535.01 199.37 509.86 178.81 525.4 166.11"/></g><g id="star-11" data-name="star"><polygon id="pt-51" data-name="pt" class="cls-2" points="646.36 178.81 621.21 199.37 630.82 166.11 646.36 178.81"/><polygon id="pt-52" data-name="pt" class="cls-2" points="635.62 182.74 610.47 162.18 641.56 162.18 635.62 182.74"/><polygon id="pt-53" data-name="pt" class="cls-2" points="628.98 172.46 638.59 139.2 648.19 172.46 628.98 172.46"/><polygon id="pt-54" data-name="pt" class="cls-2" points="635.62 162.18 666.71 162.18 641.56 182.74 635.62 162.18"/><polygon id="pt-55" data-name="pt" class="cls-2" points="646.36 166.11 655.97 199.37 630.82 178.81 646.36 166.11"/></g></g><g id="s6-2" data-name="s6"><g id="s5-3" data-name="s5"><g id="star-12" data-name="star"><polygon id="pt-56" data-name="pt" class="cls-2" points="102.04 237.13 76.89 257.69 86.5 224.43 102.04 237.13"/><polygon id="pt-57" data-name="pt" class="cls-2" points="91.3 241.06 66.15 220.5 97.24 220.5 91.3 241.06"/><polygon id="pt-58" data-name="pt" class="cls-2" points="84.66 230.78 94.27 197.52 103.87 230.78 84.66 230.78"/><polygon id="pt-59" data-name="pt" class="cls-2" points="91.3 220.5 122.39 220.5 97.24 241.06 91.3 220.5"/><polygon id="pt-60" data-name="pt" class="cls-2" points="102.04 224.43 111.65 257.69 86.5 237.13 102.04 224.43"/></g><g id="star-13" data-name="star"><polygon id="pt-61" data-name="pt" class="cls-2" points="223 237.13 197.85 257.69 207.46 224.43 223 237.13"/><polygon id="pt-62" data-name="pt" class="cls-2" points="212.26 241.06 187.11 220.5 218.2 220.5 212.26 241.06"/><polygon id="pt-63" data-name="pt" class="cls-2" points="205.62 230.78 215.23 197.52 224.83 230.78 205.62 230.78"/><polygon id="pt-64" data-name="pt" class="cls-2" points="212.26 220.5 243.35 220.5 218.2 241.06 212.26 220.5"/><polygon id="pt-65" data-name="pt" class="cls-2" points="223 224.43 232.61 257.69 207.46 237.13 223 224.43"/></g><g id="star-14" data-name="star"><polygon id="pt-66" data-name="pt" class="cls-2" points="343.96 237.13 318.81 257.69 328.42 224.43 343.96 237.13"/><polygon id="pt-67" data-name="pt" class="cls-2" points="333.22 241.06 308.07 220.5 339.16 220.5 333.22 241.06"/><polygon id="pt-68" data-name="pt" class="cls-2" points="326.58 230.78 336.19 197.52 345.79 230.78 326.58 230.78"/><polygon id="pt-69" data-name="pt" class="cls-2" points="333.22 220.5 364.31 220.5 339.16 241.06 333.22 220.5"/><polygon id="pt-70" data-name="pt" class="cls-2" points="343.96 224.43 353.57 257.69 328.42 237.13 343.96 224.43"/></g><g id="star-15" data-name="star"><polygon id="pt-71" data-name="pt" class="cls-2" points="464.92 237.13 439.77 257.69 449.38 224.43 464.92 237.13"/><polygon id="pt-72" data-name="pt" class="cls-2" points="454.18 241.06 429.03 220.5 460.12 220.5 454.18 241.06"/><polygon id="pt-73" data-name="pt" class="cls-2" points="447.54 230.78 457.15 197.52 466.75 230.78 447.54 230.78"/><polygon id="pt-74" data-name="pt" class="cls-2" points="454.18 220.5 485.27 220.5 460.12 241.06 454.18 220.5"/><polygon id="pt-75" data-name="pt" class="cls-2" points="464.92 224.43 474.53 257.69 449.38 237.13 464.92 224.43"/></g><g id="star-16" data-name="star"><polygon id="pt-76" data-name="pt" class="cls-2" points="585.88 237.13 560.73 257.69 570.34 224.43 585.88 237.13"/><polygon id="pt-77" data-name="pt" class="cls-2" points="575.14 241.06 549.99 220.5 581.08 220.5 575.14 241.06"/><polygon id="pt-78" data-name="pt" class="cls-2" points="568.5 230.78 578.11 197.52 587.71 230.78 568.5 230.78"/><polygon id="pt-79" data-name="pt" class="cls-2" points="575.14 220.5 606.23 220.5 581.08 241.06 575.14 220.5"/><polygon id="pt-80" data-name="pt" class="cls-2" points="585.88 224.43 595.49 257.69 570.34 237.13 585.88 224.43"/></g></g><g id="star-17" data-name="star"><polygon id="pt-81" data-name="pt" class="cls-2" points="706.84 237.13 681.69 257.69 691.29 224.43 706.84 237.13"/><polygon id="pt-82" data-name="pt" class="cls-2" points="696.1 241.06 670.95 220.5 702.04 220.5 696.1 241.06"/><polygon id="pt-83" data-name="pt" class="cls-2" points="689.46 230.78 699.07 197.52 708.67 230.78 689.46 230.78"/><polygon id="pt-84" data-name="pt" class="cls-2" points="696.1 220.5 727.19 220.5 702.04 241.06 696.1 220.5"/><polygon id="pt-85" data-name="pt" class="cls-2" points="706.84 224.43 716.45 257.69 691.29 237.13 706.84 224.43"/></g></g><g id="s5-4" data-name="s5"><g id="star-18" data-name="star"><polygon id="pt-86" data-name="pt" class="cls-2" points="162.52 295.45 137.37 316.01 146.97 282.75 162.52 295.45"/><polygon id="pt-87" data-name="pt" class="cls-2" points="151.78 299.38 126.63 278.82 157.72 278.82 151.78 299.38"/><polygon id="pt-88" data-name="pt" class="cls-2" points="145.14 289.1 154.75 255.84 164.35 289.1 145.14 289.1"/><polygon id="pt-89" data-name="pt" class="cls-2" points="151.78 278.82 182.87 278.82 157.72 299.38 151.78 278.82"/><polygon id="pt-90" data-name="pt" class="cls-2" points="162.52 282.75 172.13 316.01 146.97 295.45 162.52 282.75"/></g><g id="star-19" data-name="star"><polygon id="pt-91" data-name="pt" class="cls-2" points="283.48 295.45 258.33 316.01 267.94 282.75 283.48 295.45"/><polygon id="pt-92" data-name="pt" class="cls-2" points="272.74 299.38 247.59 278.82 278.68 278.82 272.74 299.38"/><polygon id="pt-93" data-name="pt" class="cls-2" points="266.1 289.1 275.71 255.84 285.31 289.1 266.1 289.1"/><polygon id="pt-94" data-name="pt" class="cls-2" points="272.74 278.82 303.83 278.82 278.68 299.38 272.74 278.82"/><polygon id="pt-95" data-name="pt" class="cls-2" points="283.48 282.75 293.09 316.01 267.94 295.45 283.48 282.75"/></g><g id="star-20" data-name="star"><polygon id="pt-96" data-name="pt" class="cls-2" points="404.44 295.45 379.29 316.01 388.89 282.75 404.44 295.45"/><polygon id="pt-97" data-name="pt" class="cls-2" points="393.7 299.38 368.55 278.82 399.64 278.82 393.7 299.38"/><polygon id="pt-98" data-name="pt" class="cls-2" points="387.06 289.1 396.67 255.84 406.27 289.1 387.06 289.1"/><polygon id="pt-99" data-name="pt" class="cls-2" points="393.7 278.82 424.79 278.82 399.64 299.38 393.7 278.82"/><polygon id="pt-100" data-name="pt" class="cls-2" points="404.44 282.75 414.05 316.01 388.89 295.45 404.44 282.75"/></g><g id="star-21" data-name="star"><polygon id="pt-101" data-name="pt" class="cls-2" points="525.4 295.45 500.25 316.01 509.86 282.75 525.4 295.45"/><polygon id="pt-102" data-name="pt" class="cls-2" points="514.66 299.38 489.51 278.82 520.6 278.82 514.66 299.38"/><polygon id="pt-103" data-name="pt" class="cls-2" points="508.02 289.1 517.63 255.84 527.23 289.1 508.02 289.1"/><polygon id="pt-104" data-name="pt" class="cls-2" points="514.66 278.82 545.75 278.82 520.6 299.38 514.66 278.82"/><polygon id="pt-105" data-name="pt" class="cls-2" points="525.4 282.75 535.01 316.01 509.86 295.45 525.4 282.75"/></g><g id="star-22" data-name="star"><polygon id="pt-106" data-name="pt" class="cls-2" points="646.36 295.45 621.21 316.01 630.82 282.75 646.36 295.45"/><polygon id="pt-107" data-name="pt" class="cls-2" points="635.62 299.38 610.47 278.82 641.56 278.82 635.62 299.38"/><polygon id="pt-108" data-name="pt" class="cls-2" points="628.98 289.1 638.59 255.84 648.19 289.1 628.98 289.1"/><polygon id="pt-109" data-name="pt" class="cls-2" points="635.62 278.82 666.71 278.82 641.56 299.38 635.62 278.82"/><polygon id="pt-110" data-name="pt" class="cls-2" points="646.36 282.75 655.97 316.01 630.82 295.45 646.36 282.75"/></g></g></g><g id="x4-2" data-name="x4"><g id="s6-3" data-name="s6"><g id="s5-5" data-name="s5"><g id="star-23" data-name="star"><polygon id="pt-111" data-name="pt" class="cls-2" points="102.04 353.77 76.89 374.33 86.5 341.07 102.04 353.77"/><polygon id="pt-112" data-name="pt" class="cls-2" points="91.3 357.7 66.15 337.14 97.24 337.14 91.3 357.7"/><polygon id="pt-113" data-name="pt" class="cls-2" points="84.66 347.42 94.27 314.16 103.87 347.42 84.66 347.42"/><polygon id="pt-114" data-name="pt" class="cls-2" points="91.3 337.14 122.39 337.14 97.24 357.7 91.3 337.14"/><polygon id="pt-115" data-name="pt" class="cls-2" points="102.04 341.07 111.65 374.33 86.5 353.77 102.04 341.07"/></g><g id="star-24" data-name="star"><polygon id="pt-116" data-name="pt" class="cls-2" points="223 353.77 197.85 374.33 207.46 341.07 223 353.77"/><polygon id="pt-117" data-name="pt" class="cls-2" points="212.26 357.7 187.11 337.14 218.2 337.14 212.26 357.7"/><polygon id="pt-118" data-name="pt" class="cls-2" points="205.62 347.42 215.23 314.16 224.83 347.42 205.62 347.42"/><polygon id="pt-119" data-name="pt" class="cls-2" points="212.26 337.14 243.35 337.14 218.2 357.7 212.26 337.14"/><polygon id="pt-120" data-name="pt" class="cls-2" points="223 341.07 232.61 374.33 207.46 353.77 223 341.07"/></g><g id="star-25" data-name="star"><polygon id="pt-121" data-name="pt" class="cls-2" points="343.96 353.77 318.81 374.33 328.42 341.07 343.96 353.77"/><polygon id="pt-122" data-name="pt" class="cls-2" points="333.22 357.7 308.07 337.14 339.16 337.14 333.22 357.7"/><polygon id="pt-123" data-name="pt" class="cls-2" points="326.58 347.42 336.19 314.16 345.79 347.42 326.58 347.42"/><polygon id="pt-124" data-name="pt" class="cls-2" points="333.22 337.14 364.31 337.14 339.16 357.7 333.22 337.14"/><polygon id="pt-125" data-name="pt" class="cls-2" points="343.96 341.07 353.57 374.33 328.42 353.77 343.96 341.07"/></g><g id="star-26" data-name="star"><polygon id="pt-126" data-name="pt" class="cls-2" points="464.92 353.77 439.77 374.33 449.38 341.07 464.92 353.77"/><polygon id="pt-127" data-name="pt" class="cls-2" points="454.18 357.7 429.03 337.14 460.12 337.14 454.18 357.7"/><polygon id="pt-128" data-name="pt" class="cls-2" points="447.54 347.42 457.15 314.16 466.75 347.42 447.54 347.42"/><polygon id="pt-129" data-name="pt" class="cls-2" points="454.18 337.14 485.27 337.14 460.12 357.7 454.18 337.14"/><polygon id="pt-130" data-name="pt" class="cls-2" points="464.92 341.07 474.53 374.33 449.38 353.77 464.92 341.07"/></g><g id="star-27" data-name="star"><polygon id="pt-131" data-name="pt" class="cls-2" points="585.88 353.77 560.73 374.33 570.34 341.07 585.88 353.77"/><polygon id="pt-132" data-name="pt" class="cls-2" points="575.14 357.7 549.99 337.14 581.08 337.14 575.14 357.7"/><polygon id="pt-133" data-name="pt" class="cls-2" points="568.5 347.42 578.11 314.16 587.71 347.42 568.5 347.42"/><polygon id="pt-134" data-name="pt" class="cls-2" points="575.14 337.14 606.23 337.14 581.08 357.7 575.14 337.14"/><polygon id="pt-135" data-name="pt" class="cls-2" points="585.88 341.07 595.49 374.33 570.34 353.77 585.88 341.07"/></g></g><g id="star-28" data-name="star"><polygon id="pt-136" data-name="pt" class="cls-2" points="706.84 353.77 681.69 374.33 691.29 341.07 706.84 353.77"/><polygon id="pt-137" data-name="pt" class="cls-2" points="696.1 357.7 670.95 337.14 702.04 337.14 696.1 357.7"/><polygon id="pt-138" data-name="pt" class="cls-2" points="689.46 347.42 699.07 314.16 708.67 347.42 689.46 347.42"/><polygon id="pt-139" data-name="pt" class="cls-2" points="696.1 337.14 727.19 337.14 702.04 357.7 696.1 337.14"/><polygon id="pt-140" data-name="pt" class="cls-2" points="706.84 341.07 716.45 374.33 691.29 353.77 706.84 341.07"/></g></g><g id="s5-6" data-name="s5"><g id="star-29" data-name="star"><polygon id="pt-141" data-name="pt" class="cls-2" points="162.52 412.09 137.37 432.65 146.97 399.39 162.52 412.09"/><polygon id="pt-142" data-name="pt" class="cls-2" points="151.78 416.02 126.63 395.46 157.72 395.46 151.78 416.02"/><polygon id="pt-143" data-name="pt" class="cls-2" points="145.14 405.74 154.75 372.48 164.35 405.74 145.14 405.74"/><polygon id="pt-144" data-name="pt" class="cls-2" points="151.78 395.46 182.87 395.46 157.72 416.02 151.78 395.46"/><polygon id="pt-145" data-name="pt" class="cls-2" points="162.52 399.39 172.13 432.65 146.97 412.09 162.52 399.39"/></g><g id="star-30" data-name="star"><polygon id="pt-146" data-name="pt" class="cls-2" points="283.48 412.09 258.33 432.65 267.94 399.39 283.48 412.09"/><polygon id="pt-147" data-name="pt" class="cls-2" points="272.74 416.02 247.59 395.46 278.68 395.46 272.74 416.02"/><polygon id="pt-148" data-name="pt" class="cls-2" points="266.1 405.74 275.71 372.48 285.31 405.74 266.1 405.74"/><polygon id="pt-149" data-name="pt" class="cls-2" points="272.74 395.46 303.83 395.46 278.68 416.02 272.74 395.46"/><polygon id="pt-150" data-name="pt" class="cls-2" points="283.48 399.39 293.09 432.65 267.94 412.09 283.48 399.39"/></g><g id="star-31" data-name="star"><polygon id="pt-151" data-name="pt" class="cls-2" points="404.44 412.09 379.29 432.65 388.89 399.39 404.44 412.09"/><polygon id="pt-152" data-name="pt" class="cls-2" points="393.7 416.02 368.55 395.46 399.64 395.46 393.7 416.02"/><polygon id="pt-153" data-name="pt" class="cls-2" points="387.06 405.74 396.67 372.48 406.27 405.74 387.06 405.74"/><polygon id="pt-154" data-name="pt" class="cls-2" points="393.7 395.46 424.79 395.46 399.64 416.02 393.7 395.46"/><polygon id="pt-155" data-name="pt" class="cls-2" points="404.44 399.39 414.05 432.65 388.89 412.09 404.44 399.39"/></g><g id="star-32" data-name="star"><polygon id="pt-156" data-name="pt" class="cls-2" points="525.4 412.09 500.25 432.65 509.86 399.39 525.4 412.09"/><polygon id="pt-157" data-name="pt" class="cls-2" points="514.66 416.02 489.51 395.46 520.6 395.46 514.66 416.02"/><polygon id="pt-158" data-name="pt" class="cls-2" points="508.02 405.74 517.63 372.48 527.23 405.74 508.02 405.74"/><polygon id="pt-159" data-name="pt" class="cls-2" points="514.66 395.46 545.75 395.46 520.6 416.02 514.66 395.46"/><polygon id="pt-160" data-name="pt" class="cls-2" points="525.4 399.39 535.01 432.65 509.86 412.09 525.4 399.39"/></g><g id="star-33" data-name="star"><polygon id="pt-161" data-name="pt" class="cls-2" points="646.36 412.09 621.21 432.65 630.82 399.39 646.36 412.09"/><polygon id="pt-162" data-name="pt" class="cls-2" points="635.62 416.02 610.47 395.46 641.56 395.46 635.62 416.02"/><polygon id="pt-163" data-name="pt" class="cls-2" points="628.98 405.74 638.59 372.48 648.19 405.74 628.98 405.74"/><polygon id="pt-164" data-name="pt" class="cls-2" points="635.62 395.46 666.71 395.46 641.56 416.02 635.62 395.46"/><polygon id="pt-165" data-name="pt" class="cls-2" points="646.36 399.39 655.97 432.65 630.82 412.09 646.36 399.39"/></g></g><g id="s6-4" data-name="s6"><g id="s5-7" data-name="s5"><g id="star-34" data-name="star"><polygon id="pt-166" data-name="pt" class="cls-2" points="102.04 470.42 76.89 490.97 86.5 457.71 102.04 470.42"/><polygon id="pt-167" data-name="pt" class="cls-2" points="91.3 474.34 66.15 453.78 97.24 453.78 91.3 474.34"/><polygon id="pt-168" data-name="pt" class="cls-2" points="84.66 464.06 94.27 430.8 103.87 464.06 84.66 464.06"/><polygon id="pt-169" data-name="pt" class="cls-2" points="91.3 453.78 122.39 453.78 97.24 474.34 91.3 453.78"/><polygon id="pt-170" data-name="pt" class="cls-2" points="102.04 457.71 111.65 490.97 86.5 470.42 102.04 457.71"/></g><g id="star-35" data-name="star"><polygon id="pt-171" data-name="pt" class="cls-2" points="223 470.42 197.85 490.97 207.46 457.71 223 470.42"/><polygon id="pt-172" data-name="pt" class="cls-2" points="212.26 474.34 187.11 453.78 218.2 453.78 212.26 474.34"/><polygon id="pt-173" data-name="pt" class="cls-2" points="205.62 464.06 215.23 430.8 224.83 464.06 205.62 464.06"/><polygon id="pt-174" data-name="pt" class="cls-2" points="212.26 453.78 243.35 453.78 218.2 474.34 212.26 453.78"/><polygon id="pt-175" data-name="pt" class="cls-2" points="223 457.71 232.61 490.97 207.46 470.42 223 457.71"/></g><g id="star-36" data-name="star"><polygon id="pt-176" data-name="pt" class="cls-2" points="343.96 470.42 318.81 490.97 328.42 457.71 343.96 470.42"/><polygon id="pt-177" data-name="pt" class="cls-2" points="333.22 474.34 308.07 453.78 339.16 453.78 333.22 474.34"/><polygon id="pt-178" data-name="pt" class="cls-2" points="326.58 464.06 336.19 430.8 345.79 464.06 326.58 464.06"/><polygon id="pt-179" data-name="pt" class="cls-2" points="333.22 453.78 364.31 453.78 339.16 474.34 333.22 453.78"/><polygon id="pt-180" data-name="pt" class="cls-2" points="343.96 457.71 353.57 490.97 328.42 470.42 343.96 457.71"/></g><g id="star-37" data-name="star"><polygon id="pt-181" data-name="pt" class="cls-2" points="464.92 470.42 439.77 490.97 449.38 457.71 464.92 470.42"/><polygon id="pt-182" data-name="pt" class="cls-2" points="454.18 474.34 429.03 453.78 460.12 453.78 454.18 474.34"/><polygon id="pt-183" data-name="pt" class="cls-2" points="447.54 464.06 457.15 430.8 466.75 464.06 447.54 464.06"/><polygon id="pt-184" data-name="pt" class="cls-2" points="454.18 453.78 485.27 453.78 460.12 474.34 454.18 453.78"/><polygon id="pt-185" data-name="pt" class="cls-2" points="464.92 457.71 474.53 490.97 449.38 470.42 464.92 457.71"/></g><g id="star-38" data-name="star"><polygon id="pt-186" data-name="pt" class="cls-2" points="585.88 470.42 560.73 490.97 570.34 457.71 585.88 470.42"/><polygon id="pt-187" data-name="pt" class="cls-2" points="575.14 474.34 549.99 453.78 581.08 453.78 575.14 474.34"/><polygon id="pt-188" data-name="pt" class="cls-2" points="568.5 464.06 578.11 430.8 587.71 464.06 568.5 464.06"/><polygon id="pt-189" data-name="pt" class="cls-2" points="575.14 453.78 606.23 453.78 581.08 474.34 575.14 453.78"/><polygon id="pt-190" data-name="pt" class="cls-2" points="585.88 457.71 595.49 490.97 570.34 470.42 585.88 457.71"/></g></g><g id="star-39" data-name="star"><polygon id="pt-191" data-name="pt" class="cls-2" points="706.84 470.42 681.69 490.97 691.29 457.71 706.84 470.42"/><polygon id="pt-192" data-name="pt" class="cls-2" points="696.1 474.34 670.95 453.78 702.04 453.78 696.1 474.34"/><polygon id="pt-193" data-name="pt" class="cls-2" points="689.46 464.06 699.07 430.8 708.67 464.06 689.46 464.06"/><polygon id="pt-194" data-name="pt" class="cls-2" points="696.1 453.78 727.19 453.78 702.04 474.34 696.1 453.78"/><polygon id="pt-195" data-name="pt" class="cls-2" points="706.84 457.71 716.45 490.97 691.29 470.42 706.84 457.71"/></g></g><g id="s5-8" data-name="s5"><g id="star-40" data-name="star"><polygon id="pt-196" data-name="pt" class="cls-2" points="162.52 528.73 137.37 549.29 146.97 516.03 162.52 528.73"/><polygon id="pt-197" data-name="pt" class="cls-2" points="151.78 532.66 126.63 512.1 157.72 512.1 151.78 532.66"/><polygon id="pt-198" data-name="pt" class="cls-2" points="145.14 522.38 154.75 489.12 164.35 522.38 145.14 522.38"/><polygon id="pt-199" data-name="pt" class="cls-2" points="151.78 512.1 182.87 512.1 157.72 532.66 151.78 512.1"/><polygon id="pt-200" data-name="pt" class="cls-2" points="162.52 516.03 172.13 549.29 146.97 528.73 162.52 516.03"/></g><g id="star-41" data-name="star"><polygon id="pt-201" data-name="pt" class="cls-2" points="283.48 528.73 258.33 549.29 267.94 516.03 283.48 528.73"/><polygon id="pt-202" data-name="pt" class="cls-2" points="272.74 532.66 247.59 512.1 278.68 512.1 272.74 532.66"/><polygon id="pt-203" data-name="pt" class="cls-2" points="266.1 522.38 275.71 489.12 285.31 522.38 266.1 522.38"/><polygon id="pt-204" data-name="pt" class="cls-2" points="272.74 512.1 303.83 512.1 278.68 532.66 272.74 512.1"/><polygon id="pt-205" data-name="pt" class="cls-2" points="283.48 516.03 293.09 549.29 267.94 528.73 283.48 516.03"/></g><g id="star-42" data-name="star"><polygon id="pt-206" data-name="pt" class="cls-2" points="404.44 528.73 379.29 549.29 388.89 516.03 404.44 528.73"/><polygon id="pt-207" data-name="pt" class="cls-2" points="393.7 532.66 368.55 512.1 399.64 512.1 393.7 532.66"/><polygon id="pt-208" data-name="pt" class="cls-2" points="387.06 522.38 396.67 489.12 406.27 522.38 387.06 522.38"/><polygon id="pt-209" data-name="pt" class="cls-2" points="393.7 512.1 424.79 512.1 399.64 532.66 393.7 512.1"/><polygon id="pt-210" data-name="pt" class="cls-2" points="404.44 516.03 414.05 549.29 388.89 528.73 404.44 516.03"/></g><g id="star-43" data-name="star"><polygon id="pt-211" data-name="pt" class="cls-2" points="525.4 528.73 500.25 549.29 509.86 516.03 525.4 528.73"/><polygon id="pt-212" data-name="pt" class="cls-2" points="514.66 532.66 489.51 512.1 520.6 512.1 514.66 532.66"/><polygon id="pt-213" data-name="pt" class="cls-2" points="508.02 522.38 517.63 489.12 527.23 522.38 508.02 522.38"/><polygon id="pt-214" data-name="pt" class="cls-2" points="514.66 512.1 545.75 512.1 520.6 532.66 514.66 512.1"/><polygon id="pt-215" data-name="pt" class="cls-2" points="525.4 516.03 535.01 549.29 509.86 528.73 525.4 516.03"/></g><g id="star-44" data-name="star"><polygon id="pt-216" data-name="pt" class="cls-2" points="646.36 528.73 621.21 549.29 630.82 516.03 646.36 528.73"/><polygon id="pt-217" data-name="pt" class="cls-2" points="635.62 532.66 610.47 512.1 641.56 512.1 635.62 532.66"/><polygon id="pt-218" data-name="pt" class="cls-2" points="628.98 522.38 638.59 489.12 648.19 522.38 628.98 522.38"/><polygon id="pt-219" data-name="pt" class="cls-2" points="635.62 512.1 666.71 512.1 641.56 532.66 635.62 512.1"/><polygon id="pt-220" data-name="pt" class="cls-2" points="646.36 516.03 655.97 549.29 630.82 528.73 646.36 516.03"/></g></g></g><g id="s6-5" data-name="s6"><g id="s5-9" data-name="s5"><g id="star-45" data-name="star"><polygon id="pt-221" data-name="pt" class="cls-2" points="102.04 587.05 76.89 607.61 86.5 574.35 102.04 587.05"/><polygon id="pt-222" data-name="pt" class="cls-2" points="91.3 590.98 66.15 570.42 97.24 570.42 91.3 590.98"/><polygon id="pt-223" data-name="pt" class="cls-2" points="84.66 580.7 94.27 547.44 103.87 580.7 84.66 580.7"/><polygon id="pt-224" data-name="pt" class="cls-2" points="91.3 570.42 122.39 570.42 97.24 590.98 91.3 570.42"/><polygon id="pt-225" data-name="pt" class="cls-2" points="102.04 574.35 111.65 607.61 86.5 587.05 102.04 574.35"/></g><g id="star-46" data-name="star"><polygon id="pt-226" data-name="pt" class="cls-2" points="223 587.05 197.85 607.61 207.46 574.35 223 587.05"/><polygon id="pt-227" data-name="pt" class="cls-2" points="212.26 590.98 187.11 570.42 218.2 570.42 212.26 590.98"/><polygon id="pt-228" data-name="pt" class="cls-2" points="205.62 580.7 215.23 547.44 224.83 580.7 205.62 580.7"/><polygon id="pt-229" data-name="pt" class="cls-2" points="212.26 570.42 243.35 570.42 218.2 590.98 212.26 570.42"/><polygon id="pt-230" data-name="pt" class="cls-2" points="223 574.35 232.61 607.61 207.46 587.05 223 574.35"/></g><g id="star-47" data-name="star"><polygon id="pt-231" data-name="pt" class="cls-2" points="343.96 587.05 318.81 607.61 328.42 574.35 343.96 587.05"/><polygon id="pt-232" data-name="pt" class="cls-2" points="333.22 590.98 308.07 570.42 339.16 570.42 333.22 590.98"/><polygon id="pt-233" data-name="pt" class="cls-2" points="326.58 580.7 336.19 547.44 345.79 580.7 326.58 580.7"/><polygon id="pt-234" data-name="pt" class="cls-2" points="333.22 570.42 364.31 570.42 339.16 590.98 333.22 570.42"/><polygon id="pt-235" data-name="pt" class="cls-2" points="343.96 574.35 353.57 607.61 328.42 587.05 343.96 574.35"/></g><g id="star-48" data-name="star"><polygon id="pt-236" data-name="pt" class="cls-2" points="464.92 587.05 439.77 607.61 449.38 574.35 464.92 587.05"/><polygon id="pt-237" data-name="pt" class="cls-2" points="454.18 590.98 429.03 570.42 460.12 570.42 454.18 590.98"/><polygon id="pt-238" data-name="pt" class="cls-2" points="447.54 580.7 457.15 547.44 466.75 580.7 447.54 580.7"/><polygon id="pt-239" data-name="pt" class="cls-2" points="454.18 570.42 485.27 570.42 460.12 590.98 454.18 570.42"/><polygon id="pt-240" data-name="pt" class="cls-2" points="464.92 574.35 474.53 607.61 449.38 587.05 464.92 574.35"/></g><g id="star-49" data-name="star"><polygon id="pt-241" data-name="pt" class="cls-2" points="585.88 587.05 560.73 607.61 570.34 574.35 585.88 587.05"/><polygon id="pt-242" data-name="pt" class="cls-2" points="575.14 590.98 549.99 570.42 581.08 570.42 575.14 590.98"/><polygon id="pt-243" data-name="pt" class="cls-2" points="568.5 580.7 578.11 547.44 587.71 580.7 568.5 580.7"/><polygon id="pt-244" data-name="pt" class="cls-2" points="575.14 570.42 606.23 570.42 581.08 590.98 575.14 570.42"/><polygon id="pt-245" data-name="pt" class="cls-2" points="585.88 574.35 595.49 607.61 570.34 587.05 585.88 574.35"/></g></g><g id="star-50" data-name="star"><polygon id="pt-246" data-name="pt" class="cls-2" points="706.84 587.05 681.69 607.61 691.29 574.35 706.84 587.05"/><polygon id="pt-247" data-name="pt" class="cls-2" points="696.1 590.98 670.95 570.42 702.04 570.42 696.1 590.98"/><polygon id="pt-248" data-name="pt" class="cls-2" points="689.46 580.7 699.07 547.44 708.67 580.7 689.46 580.7"/><polygon id="pt-249" data-name="pt" class="cls-2" points="696.1 570.42 727.19 570.42 702.04 590.98 696.1 570.42"/><polygon id="pt-250" data-name="pt" class="cls-2" points="706.84 574.35 716.45 607.61 691.29 587.05 706.84 574.35"/></g></g></g><g class="cls-5"><path class="cls-6" d="M-960-540V540H960V-540Z" transform="translate(991.87 596.65)"/><path class="cls-7" d="M-960-540,960,540m0-1080L-960,540" transform="translate(991.87 596.65)"/><g class="cls-8"><path class="cls-9" d="M-960,540,0,0,960,540" transform="translate(991.87 596.65)"/></g><path class="cls-10" d="M0-540V540M-960,0H960" transform="translate(991.87 596.65)"/><path class="cls-11" d="M0-540V540M-960,0H960" transform="translate(991.87 596.65)"/></g></svg>