<svg id="Livello_1" data-name="Livello 1" xmlns="http://www.w3.org/2000/svg" viewBox="0 0 1920 1080"><defs><style>.cls-1{fill:#c60b1e;}.cls-2{fill:#ffc400;}.cls-3,.cls-33,.cls-34,.cls-35,.cls-59,.cls-69,.cls-9{fill:#ad1519;}.cls-10,.cls-11,.cls-12,.cls-13,.cls-14,.cls-15,.cls-16,.cls-17,.cls-18,.cls-19,.cls-20,.cls-21,.cls-22,.cls-23,.cls-24,.cls-25,.cls-26,.cls-27,.cls-28,.cls-29,.cls-3,.cls-30,.cls-31,.cls-32,.cls-33,.cls-34,.cls-35,.cls-36,.cls-37,.cls-38,.cls-39,.cls-4,.cls-40,.cls-41,.cls-42,.cls-43,.cls-44,.cls-45,.cls-46,.cls-47,.cls-48,.cls-49,.cls-50,.cls-51,.cls-52,.cls-53,.cls-54,.cls-55,.cls-56,.cls-57,.cls-58,.cls-59,.cls-6,.cls-60,.cls-63,.cls-65,.cls-66,.cls-67,.cls-68,.cls-69,.cls-7,.cls-70,.cls-71,.cls-72,.cls-8,.cls-9{stroke:#000;}.cls-3,.cls-30,.cls-34,.cls-71,.cls-8{stroke-linejoin:round;}.cls-10,.cls-11,.cls-3,.cls-36,.cls-39,.cls-4,.cls-61,.cls-67,.cls-7,.cls-8,.cls-9{stroke-width:0.26px;}.cls-30,.cls-31,.cls-4,.cls-5,.cls-6,.cls-60,.cls-61,.cls-63,.cls-71,.cls-72,.cls-8{fill:#c8b100;}.cls-6{stroke-width:0.3px;}.cls-12,.cls-13,.cls-14,.cls-15,.cls-16,.cls-17,.cls-18,.cls-19,.cls-20,.cls-21,.cls-22,.cls-23,.cls-24,.cls-25,.cls-26,.cls-27,.cls-32,.cls-36,.cls-37,.cls-41,.cls-42,.cls-43,.cls-44,.cls-45,.cls-46,.cls-47,.cls-48,.cls-49,.cls-50,.cls-51,.cls-52,.cls-53,.cls-54,.cls-7{fill:none;}.cls-10,.cls-55,.cls-58,.cls-62{fill:#058e6e;}.cls-11,.cls-38,.cls-40{fill:#fff;}.cls-12{stroke-width:0.01px;}.cls-13{stroke-width:0.02px;}.cls-14{stroke-width:0.03px;}.cls-15{stroke-width:0.04px;}.cls-16,.cls-68{stroke-width:0.05px;}.cls-17{stroke-width:0.06px;}.cls-18{stroke-width:0.07px;}.cls-19{stroke-width:0.08px;}.cls-20{stroke-width:0.09px;}.cls-21{stroke-width:0.1px;}.cls-22{stroke-width:0.11px;}.cls-23{stroke-width:0.12px;}.cls-24{stroke-width:0.13px;}.cls-25{stroke-width:0.14px;}.cls-26{stroke-width:0.15px;}.cls-27{stroke-width:0.18px;}.cls-28,.cls-39,.cls-70{fill:#005bbf;}.cls-28,.cls-29,.cls-30,.cls-31,.cls-32,.cls-33,.cls-34,.cls-40,.cls-55,.cls-65,.cls-66{stroke-width:0.39px;}.cls-29,.cls-56{fill:#ccc;}.cls-35{stroke-width:0.27px;}.cls-36{stroke-linecap:round;}.cls-37,.cls-38{stroke-width:0.21px;}.cls-41{stroke-width:0.23px;}.cls-42{stroke-width:0.28px;}.cls-43{stroke-width:0.33px;}.cls-44{stroke-width:0.37px;}.cls-45{stroke-width:0.42px;}.cls-46,.cls-63{stroke-width:0.46px;}.cls-47{stroke-width:0.51px;}.cls-48{stroke-width:0.56px;}.cls-49{stroke-width:0.6px;}.cls-50{stroke-width:0.63px;}.cls-51{stroke-width:0.68px;}.cls-52{stroke-width:0.73px;}.cls-53{stroke-width:0.77px;}.cls-54{stroke-width:0.91px;}.cls-56,.cls-57,.cls-58,.cls-59,.cls-60{stroke-width:0.52px;}.cls-57{fill:#ffd691;}.cls-61{stroke:#c8b100;}.cls-64{fill:#0039f0;}.cls-65{fill:#db4446;}.cls-66{fill:#ed72aa;}.cls-69,.cls-70{stroke-width:0.61px;}.cls-71,.cls-72{stroke-width:0.34px;}</style></defs><rect class="cls-1" width="1920" height="1080"/><rect class="cls-2" y="270" width="1920" height="540"/><g id="coa"><g id="supporters"><g id="crown_left" data-name="crown left"><path class="cls-3" d="M-529.95-60a5.86,5.86,0,0,1-2-.35,30,30,0,0,1-2.89-2.07l-1.74-1.06-1.59-1.84s-1.87-2.54-1-4.51A6.16,6.16,0,0,1-535.58-73a39.56,39.56,0,0,1,4.05-1.27,26.64,26.64,0,0,1,2.89-.91c.72-.13,3.33-.69,3.33-.69a13.1,13.1,0,0,1,1.43-.59,19,19,0,0,1,2.33-.34,19.53,19.53,0,0,1,2.89-.56c1.34,0,3.49.21,4.2.21s3.18.11,4.2.11,4.61-.24,5.63-.24a28,28,0,0,1,2.9,0,20.57,20.57,0,0,1,3.76.93c.59.24,4,1.28,5.35,1.62s4.48.8,5.94,1.38a8,8,0,0,1,3,2.38,7.38,7.38,0,0,1,1.16,2.27,3.53,3.53,0,0,1,0,2.4,13.68,13.68,0,0,1-1.31,1.75l-1.59,2.2-2,1.38A4.58,4.58,0,0,1-490-60c-1.15-.09-12.88-1.86-20.4-1.86S-530-60-530-60Z" transform="translate(960 540)"/><ellipse class="cls-4" cx="449.69" cy="465.87" rx="3.53" ry="5.4"/><ellipse class="cls-4" cx="449.74" cy="465.87" rx="1.64" ry="4.97"/><ellipse class="cls-5" cx="449.74" cy="460.17" rx="2.38" ry="1.88"/><path class="cls-6" d="M-507-80.48v1.25h-6.48v-1.25H-511v-2.85h-1.59v-1.23H-511V-85.8h1.53v1.24h1.59v1.23h-1.59v2.85H-507" transform="translate(960 540)"/><path class="cls-7" d="M-509.59-81.65a1.88,1.88,0,0,1,1.65,2.32,2.5,2.5,0,0,1-2.93,1.3c-1.27-.28-2-1.31-1.66-2.31a2.2,2.2,0,0,1,1.66-1.31" transform="translate(960 540)"/><path class="cls-4" d="M-510.26-60.31h-12.31l-.28-2.55-.59-2.65-.59-3.31c-3.41-3.78-6.53-6.26-7.58-5.72a2.54,2.54,0,0,1,1.2-1.54c3-1.51,9.25,2.12,13.93,8.08.41.54.82,1.08,1.18,1.62h10.16c.36-.54.77-1.08,1.18-1.62,4.66-6,10.9-9.59,13.9-8.08a2.43,2.43,0,0,1,1.2,1.54c-1.05-.52-4.14,1.94-7.58,5.72l-.58,3.31-.59,2.65-.26,2.55Z" transform="translate(960 540)"/><path class="cls-7" d="M-531.07-74.65c2.33-1.14,7.73,2.46,12.11,8.08m29.56-8.08c-2.32-1.14-7.7,2.46-12.1,8.08" transform="translate(960 540)"/><g id="crown_pt1" data-name="crown pt1"><path class="cls-4" d="M-528.44-55.62a9.74,9.74,0,0,0-1.48-2.33,87.05,87.05,0,0,1,19.64-2,87.31,87.31,0,0,1,19.68,2l-1.33,2a14,14,0,0,0-1,1.75A72.28,72.28,0,0,0-510.31-56c-7.14,0-14,.76-17.56,1.86a11.22,11.22,0,0,0-.59-1.47h0" transform="translate(960 540)"/><path class="cls-4" d="M-510.28-50.26a94.84,94.84,0,0,0,15.61-1.36c1.69-.44,2.69-1.06,2.51-1.82a1.43,1.43,0,0,0-.95-.82c-3.73-1-10.42-1.73-17.17-1.73s-13.5.72-17.21,1.73a1.47,1.47,0,0,0-1,.82c-.17.76.82,1.38,2.51,1.82A95.43,95.43,0,0,0-510.28-50.26Z" transform="translate(960 540)"/><path class="cls-4" d="M-490.29-60.31l-1.51-1.14a6.41,6.41,0,0,1-3.28.52,3.16,3.16,0,0,1-2.38-2.1,7.12,7.12,0,0,1-3.69,1.34A4.44,4.44,0,0,1-503.88-63a7,7,0,0,1-3.41,1,5.77,5.77,0,0,1-3.1-1.79,6.24,6.24,0,0,1-3.2,1.86,4.28,4.28,0,0,1-2.89-1.17,3.7,3.7,0,0,1-2.74,1.56A5.21,5.21,0,0,1-523-62.92a6,6,0,0,1-2.54,2,5.1,5.1,0,0,1-3.17-.59s-.31.59-.51.93a1.19,1.19,0,0,1-.8.41l.46,1a84.4,84.4,0,0,1,19.28-2,85.17,85.17,0,0,1,19.48,2l.51-1.17Z" transform="translate(960 540)"/><path class="cls-4" d="M-510.23-65.9l.71.11a1.85,1.85,0,0,0-.15.82,2.62,2.62,0,0,0,2.87,2.27,2.9,2.9,0,0,0,2.71-1.58s.28-.82.38-.82.08.88.13.88a2.66,2.66,0,0,0,2.82,1.93,2.59,2.59,0,0,0,2.84-2.29.74.74,0,0,0,0-.26l.9-.76.49.95a1.88,1.88,0,0,0-.26,1,2.48,2.48,0,0,0,2.71,2.19,2.92,2.92,0,0,0,2.26-1l.59-.62v.78A1.4,1.4,0,0,0-490-60.76a4.26,4.26,0,0,0,2.33-.82,14.27,14.27,0,0,0,2.05-1.62l.07.91A8.94,8.94,0,0,1-488-59.92a4.38,4.38,0,0,1-2.43.54,2.26,2.26,0,0,1-1.72-1.32,4.39,4.39,0,0,1-2,.48,4.06,4.06,0,0,1-3.64-1.86,4.37,4.37,0,0,1-3,1.08,4.57,4.57,0,0,1-3.22-1.25,4.48,4.48,0,0,1-2.79.93,4.45,4.45,0,0,1-3.41-1.49,4.5,4.5,0,0,1-3.43,1.49,4.48,4.48,0,0,1-2.79-.93,4.55,4.55,0,0,1-3.2,1.25,4.41,4.41,0,0,1-3-1.08,4.06,4.06,0,0,1-3.63,1.86,4.33,4.33,0,0,1-2-.48,2.26,2.26,0,0,1-1.74,1.32,4.35,4.35,0,0,1-2.41-.54,9.89,9.89,0,0,1-2.61-2.37l.18-.91a15.4,15.4,0,0,0,2.07,1.62,4.19,4.19,0,0,0,2.33.82,1.43,1.43,0,0,0,1.26-1.53v-.78l.56.62a2.9,2.9,0,0,0,2.25,1,2.49,2.49,0,0,0,2.72-2.19,1.71,1.71,0,0,0-.26-1l.49-.95.89.76a1.1,1.1,0,0,0,0,.26,2.59,2.59,0,0,0,2.84,2.29,2.71,2.71,0,0,0,2.84-1.93s0-.88.1-.88.36.84.41.82a2.85,2.85,0,0,0,2.71,1.58A2.62,2.62,0,0,0-510.87-65a1.71,1.71,0,0,0-.13-.82l.74-.11Z" transform="translate(960 540)"/><path class="cls-8" d="M-510.28-60a87.05,87.05,0,0,0-19.64,2,.8.8,0,0,1-.84-.37.57.57,0,0,1,.46-.69,83.77,83.77,0,0,1,20-2.12,84,84,0,0,1,20,2.12.58.58,0,0,1,.46.69.8.8,0,0,1-.84.37A87.38,87.38,0,0,0-510.28-60Z" transform="translate(960 540)"/><path class="cls-4" d="M-536.5-62.64s-1-1-1.66-1.58a6.74,6.74,0,0,0-1.74-.71c0-.17.71-.6,1.48-.6a1.55,1.55,0,0,1,1.15.43l.11-.43a1.29,1.29,0,0,1,.89.69,2.89,2.89,0,0,1,.13,1.55,1.78,1.78,0,0,1-.36.65Z" transform="translate(960 540)"/><path class="cls-4" d="M-531.66-64.32l-.28,1.42-3.59.32-.53-.25.1-.5,2.71-1.88,1.59.89" transform="translate(960 540)"/><path class="cls-4" d="M-536.45-63.18a1.2,1.2,0,0,1,1.36.13c.46.32.61.82.31,1.08a1.12,1.12,0,0,1-1.36-.13C-536.6-62.42-536.76-62.92-536.45-63.18Z" transform="translate(960 540)"/><path class="cls-4" d="M-529.87-62.9a.67.67,0,0,1,.33-.91,1,1,0,0,1,.95.59.63.63,0,0,1-.36.9A.87.87,0,0,1-529.87-62.9Z" transform="translate(960 540)"/><path class="cls-4" d="M-528.2-64.71l1.3,1,3.12-1.42.23-.46-.43-.36-3.58-.26-.64,1.47" transform="translate(960 540)"/><path class="cls-4" d="M-524.6-69.64l-1.71,1.38,2.2,2.47.59.19.44-.39.76-3-2.28-.69" transform="translate(960 540)"/><path class="cls-4" d="M-518.76-66.31l-.66,1.36-3.59-.28-.46-.35.26-.47,3.12-1.39,1.33,1.13" transform="translate(960 540)"/><ellipse class="cls-4" cx="436.51" cy="474.44" rx="1.25" ry="1.02"/><path class="cls-4" d="M-517.45-64.91a.68.68,0,0,1,.53-.84.76.76,0,0,1,.77.71.66.66,0,0,1-.53.82A.75.75,0,0,1-517.45-64.91Z" transform="translate(960 540)"/><path class="cls-4" d="M-515.12-66.44l1,1.23,3.43-.91.36-.39-.38-.43-3.41-.84-1,1.34" transform="translate(960 540)"/><path class="cls-4" d="M-510.31-71l-2.2,1.13,1.64,3,.56.3.56-.3,1.64-3-2.2-1.13" transform="translate(960 540)"/><path class="cls-4" d="M-505.47-66.44l-1,1.23-3.43-.91-.36-.39.36-.43,3.43-.84,1,1.34" transform="translate(960 540)"/><ellipse class="cls-4" cx="449.72" cy="473.49" rx="1.25" ry="1.02"/><path class="cls-4" d="M-503-64.91a.71.71,0,0,0-.56-.84.76.76,0,0,0-.77.71.68.68,0,0,0,.54.82A.8.8,0,0,0-503-64.91Z" transform="translate(960 540)"/><path class="cls-4" d="M-501.79-66.31l.67,1.36,3.58-.28.46-.35-.25-.47-3.12-1.39-1.34,1.13" transform="translate(960 540)"/><path class="cls-4" d="M-495.95-69.64l1.72,1.38-2.21,2.47-.58.19-.44-.39-.77-3,2.28-.69" transform="translate(960 540)"/><path class="cls-4" d="M-492.34-64.71l-1.3,1-3.13-1.42-.25-.46.48-.36,3.59-.26.61,1.47" transform="translate(960 540)"/><ellipse class="cls-4" cx="462.98" cy="474.44" rx="1.25" ry="1.02"/><path class="cls-4" d="M-490.65-62.9a.67.67,0,0,0-.33-.91,1,1,0,0,0-.95.59.63.63,0,0,0,.36.9A.87.87,0,0,0-490.65-62.9Z" transform="translate(960 540)"/><path class="cls-4" d="M-484.53-62.64s1-1,1.69-1.58a6.15,6.15,0,0,1,1.71-.71c0-.17-.71-.6-1.48-.6a1.55,1.55,0,0,0-1.15.43l-.11-.43a1.38,1.38,0,0,0-.92.69,3,3,0,0,0-.07,1.55,1.54,1.54,0,0,0,.33.65Z" transform="translate(960 540)"/><path class="cls-4" d="M-489.37-64.32l.28,1.42,3.59.32.53-.25-.12-.5-2.69-1.88-1.59.89" transform="translate(960 540)"/><path class="cls-4" d="M-484.51-63.18a1.18,1.18,0,0,0-1.35.13c-.46.32-.62.82-.31,1.08a1.15,1.15,0,0,0,1.38-.13C-484.33-62.42-484.2-62.92-484.51-63.18Z" transform="translate(960 540)"/></g><g id="crown_pt2" data-name="crown pt2"><path class="cls-9" d="M-529.79-55.51l.79-1.08,1.67.28-1,1.21-1.48-.41" transform="translate(960 540)"/><path class="cls-10" d="M-522.62-56.57l-1.77.24a.87.87,0,0,1-1-.56.72.72,0,0,1,.69-.76l1.79-.22,1.82-.23a.82.82,0,0,1,.94.54.7.7,0,0,1-.69.75l-1.81.24" transform="translate(960 540)"/><ellipse class="cls-11" cx="443.37" cy="482.33" rx="1.13" ry="0.89"/><path class="cls-9" d="M-510.21-57.28h-2.46a.78.78,0,0,1-.84-.67.75.75,0,0,1,.82-.67h5a.76.76,0,0,1,.84.67.78.78,0,0,1-.84.67h-2.54" transform="translate(960 540)"/><ellipse class="cls-11" cx="456.09" cy="482.33" rx="1.13" ry="0.89"/><path class="cls-10" d="M-497.92-56.57l1.77.24a.88.88,0,0,0,1-.56.71.71,0,0,0-.69-.76l-1.79-.22-1.82-.23a.82.82,0,0,0-.95.54.68.68,0,0,0,.69.75l1.82.24" transform="translate(960 540)"/><path class="cls-9" d="M-490.91-55.45l-.64-1.14-1.71.13.82,1.27,1.53-.26" transform="translate(960 540)"/><path class="cls-3" d="M-510.31-51.49a79.4,79.4,0,0,1-16.13-1.41,80.11,80.11,0,0,1,16.13-1.51,79.34,79.34,0,0,1,16.2,1.51A80.07,80.07,0,0,1-510.31-51.49Z" transform="translate(960 540)"/><path class="cls-12" d="M-507.39-51.67v-2.5m-1.49,2.59,0-2.66m-1.1,2.7v-2.72" transform="translate(960 540)"/><path class="cls-13" d="M-510.87-51.52v-2.74" transform="translate(960 540)"/><path class="cls-14" d="M-511.77-51.52v-2.74" transform="translate(960 540)"/><path class="cls-15" d="M-512.59-51.52v-2.74" transform="translate(960 540)"/><path class="cls-15" d="M-513.43-51.52v-2.74" transform="translate(960 540)"/><path class="cls-16" d="M-514.15-51.52v-2.74" transform="translate(960 540)"/><path class="cls-17" d="M-515.56-51.67l0-2.48m.69,2.53v-2.62" transform="translate(960 540)"/><path class="cls-18" d="M-516.86-51.78v-2.28m.66,2.35,0-2.44" transform="translate(960 540)"/><path class="cls-19" d="M-518.6-51.9v-2m.58,2V-54m.59,2.2V-54" transform="translate(960 540)"/><path class="cls-20" d="M-519.19-51.93v-1.94" transform="translate(960 540)"/><path class="cls-21" d="M-519.76-52v-1.84" transform="translate(960 540)"/><path class="cls-22" d="M-520.37-52.08v-1.68" transform="translate(960 540)"/><path class="cls-23" d="M-521.63-52.23l0-1.34m.66,1.43v-1.51" transform="translate(960 540)"/><path class="cls-23" d="M-522.27-52.34v-1.18" transform="translate(960 540)"/><path class="cls-24" d="M-522.85-52.42v-1" transform="translate(960 540)"/><path class="cls-25" d="M-523.49-52.55v-.78" transform="translate(960 540)"/><path class="cls-26" d="M-524.13-52.62v-.58" transform="translate(960 540)"/><path class="cls-27" d="M-524.83-52.75V-53" transform="translate(960 540)"/></g></g><g id="pillar_left" data-name="pillar left"><path class="cls-28" d="M-470.32,174.27a25.11,25.11,0,0,1-10.06-1.88,25.8,25.8,0,0,0-9.89-1.77,26.47,26.47,0,0,0-10,1.79,25.43,25.43,0,0,1-10,1.86,25,25,0,0,1-10.06-2,26.24,26.24,0,0,0-9.7-1.7,25.09,25.09,0,0,0-9.89,1.75,25.63,25.63,0,0,1-10.11,1.9v5.2a25.81,25.81,0,0,0,10.11-1.9,25.25,25.25,0,0,1,9.89-1.77,26.08,26.08,0,0,1,9.7,1.73,25.33,25.33,0,0,0,10.06,1.94,25.62,25.62,0,0,0,10-1.85,25.87,25.87,0,0,1,10-1.82,25.59,25.59,0,0,1,9.89,1.8,25,25,0,0,0,10,1.87l.05-5.2Z" transform="translate(960 540)"/><path class="cls-29" d="M-470.32,179.47a25.29,25.29,0,0,1-10.06-1.87,25.59,25.59,0,0,0-9.89-1.8,25.87,25.87,0,0,0-10,1.82,25.62,25.62,0,0,1-10,1.85,25.33,25.33,0,0,1-10.06-1.94,26,26,0,0,0-9.7-1.73,25.25,25.25,0,0,0-9.89,1.77,25.81,25.81,0,0,1-10.11,1.9v5.21a26,26,0,0,0,10.11-1.9,25.25,25.25,0,0,1,9.89-1.77,26.08,26.08,0,0,1,9.7,1.73,25.15,25.15,0,0,0,10.06,1.94,25.79,25.79,0,0,0,10-1.86,26.07,26.07,0,0,1,10-1.81,25.39,25.39,0,0,1,9.89,1.81,25.22,25.22,0,0,0,10,1.86l.05-5.21" transform="translate(960 540)"/><path class="cls-28" d="M-470.32,184.68a25.48,25.48,0,0,1-10.06-1.86,25.39,25.39,0,0,0-9.89-1.81,26.07,26.07,0,0,0-10,1.81,25.79,25.79,0,0,1-10,1.86,25.15,25.15,0,0,1-10.06-1.94,26,26,0,0,0-9.7-1.73,25.25,25.25,0,0,0-9.89,1.77,26,26,0,0,1-10.11,1.9v5.18A25.45,25.45,0,0,0-540,188a25.68,25.68,0,0,1,9.89-1.72,26.11,26.11,0,0,1,9.7,1.7,25,25,0,0,0,10.06,1.92,25.64,25.64,0,0,0,10-1.83,25.9,25.9,0,0,1,10-1.79,25.62,25.62,0,0,1,9.89,1.77,24.71,24.71,0,0,0,10,1.85l.05-5.18" transform="translate(960 540)"/><path class="cls-29" d="M-470.37,195.09a24.85,24.85,0,0,1-10-1.88,25.8,25.8,0,0,0-9.89-1.77,26.09,26.09,0,0,0-10,1.79,25.79,25.79,0,0,1-10,1.86,25.5,25.5,0,0,1-10.06-1.94,25.63,25.63,0,0,0-9.7-1.71,25.27,25.27,0,0,0-9.89,1.75,25.81,25.81,0,0,1-10.11,1.9v-5.18A25.41,25.41,0,0,0-540,188a25.68,25.68,0,0,1,9.89-1.72,26.11,26.11,0,0,1,9.7,1.7,25,25,0,0,0,10.06,1.92,25.64,25.64,0,0,0,10-1.83,25.9,25.9,0,0,1,10-1.79,25.62,25.62,0,0,1,9.89,1.77,25,25,0,0,0,10.06,1.85l-.05,5.23" transform="translate(960 540)"/><path class="cls-28" d="M-470.37,200.3a25.39,25.39,0,0,1-10-1.86,25.38,25.38,0,0,0-9.89-1.82,26.06,26.06,0,0,0-10,1.82,26,26,0,0,1-10,1.86,25.32,25.32,0,0,1-10.06-2,25.61,25.61,0,0,0-9.7-1.73A25.06,25.06,0,0,0-540,198.4a26,26,0,0,1-10.11,1.9v-5.17A25.77,25.77,0,0,0-540,193.19a25.27,25.27,0,0,1,9.89-1.75,26.1,26.1,0,0,1,9.7,1.71,25.5,25.5,0,0,0,10.06,1.94,25.79,25.79,0,0,0,10-1.86,26.09,26.09,0,0,1,10-1.79,25.8,25.8,0,0,1,9.89,1.77,25,25,0,0,0,10.06,1.88l-.05,5.21Z" transform="translate(960 540)"/><path class="cls-30" d="M-532.68,152.88a5.36,5.36,0,0,1,.33,1.34c0,3.16-3.25,5.68-7.2,5.68h58.73c-4,0-7.19-2.52-7.19-5.68a4.9,4.9,0,0,1,.23-1.34,3.77,3.77,0,0,1-1.13.13h-42.73A4,4,0,0,1-532.68,152.88Z" transform="translate(960 540)"/><path class="cls-31" d="M-531.64,149.62h42.73c1.46,0,2.61.76,2.61,1.69s-1.15,1.7-2.61,1.7h-42.73c-1.43,0-2.61-.77-2.61-1.7S-533.07,149.62-531.64,149.62Z" transform="translate(960 540)"/><path class="cls-31" d="M-539.47,172.5h58.55V159.9h-58.55Z" transform="translate(960 540)"/><path class="cls-29" d="M-531.07,147.57h41.6v-172h-41.6Z" transform="translate(960 540)"/><path class="cls-32" d="M-501.43-24.19V147.44m4.69-171.63V147.44" transform="translate(960 540)"/><path class="cls-31" d="M-538.68-38.08h57.07V-50.7h-57.07v12.62Z" transform="translate(960 540)"/><path class="cls-30" d="M-532.68-29.68a2.65,2.65,0,0,1,1-.15h42.73a4.31,4.31,0,0,1,1.18.17,3.14,3.14,0,0,1-2.54-2.85,3.28,3.28,0,0,1,2.64-2.87,5.55,5.55,0,0,1-1.25.17h-42.76a4.17,4.17,0,0,1-1.2-.13l.23.05a2.92,2.92,0,0,1,2.41,2.78,3.12,3.12,0,0,1-2.48,2.83Z" transform="translate(960 540)"/><path class="cls-31" d="M-531.64-29.83h42.73c1.46,0,2.61.76,2.61,1.69s-1.15,1.7-2.61,1.7h-42.73c-1.43,0-2.61-.75-2.61-1.7S-533.07-29.83-531.64-29.83Z" transform="translate(960 540)"/><path class="cls-31" d="M-531.64-38.08h42.76c1.46,0,2.63.65,2.63,1.42s-1.17,1.45-2.63,1.45h-42.76c-1.43,0-2.61-.65-2.61-1.45S-533.07-38.08-531.64-38.08Z" transform="translate(960 540)"/></g><g id="ribbon_left" data-name="ribbon left"><path class="cls-33" d="M-544,105c-5.79,2.81-9.73,5.7-9.09,7.15.31,1.32,2.15,2.31,4.79,3.78,4.15,2.44,6.65,6.78,4.68,8.79a11.86,11.86,0,0,0,5.61-9.7A12,12,0,0,0-544,105Z" transform="translate(960 540)"/><path class="cls-34" d="M-447,39.9c-9.06-3.16-24.5-5.51-42.21-6a155.33,155.33,0,0,0-19.94,1.51C-534,38.92-553,47.3-551.48,54.13c0,.13.11.43.13.56s-9.32-17.73-9.47-18.4c-1.66-7.58,19.35-16.89,47-20.78a165.86,165.86,0,0,1,24.47-1.64c17.66,0,33,1.92,42.29,4.81l.1,21.22" transform="translate(960 540)"/><path class="cls-33" d="M-531.15,61.5c-11.54-.7-19.4-3.31-20.33-7.37-.71-3.24,3.2-6.85,10.17-10.11,3.1.3,6.6.65,10.24.65l-.08,16.83" transform="translate(960 540)"/><path class="cls-33" d="M-489.4,48.34c7.22.93,12.63,2.44,15.31,4.3l.26.37c1.28,2.22-5,7-15.64,12.24l.07-16.91" transform="translate(960 540)"/><path class="cls-34" d="M-557,94.67c-1.11-2.76,10.16-8.33,26.06-13.26,7.27-2.18,13.26-4.47,20.71-7.24,22.09-8.25,38.4-17.71,36.4-21.14l-.23-.37c1.18.82,3,17.8,3,17.8,2,3.15-12.93,12.48-33.28,20.69-6.5,2.64-20.25,6.91-26.73,8.84-11.62,3.39-23.14,9.8-22.09,12.18L-557,94.69v0Z" transform="translate(960 540)"/></g><g id="crown_right" data-name="crown right"><path class="cls-35" d="M-128.38-63.89A9.27,9.27,0,0,1-131.66-62c-1.36.22-3.1-1.06-3.1-1.06a6.46,6.46,0,0,1-2.76,1.38c-1.51.31-3.61-1.42-3.61-1.42a8.13,8.13,0,0,1-2.74,2.14,4.35,4.35,0,0,1-2.89-.52,4.39,4.39,0,0,1-1.67,1.32,2.1,2.1,0,0,1-1.23-.11l-1.53-.82-1.74-1.56-1.59-.52s-.72-2-.8-2.31-.2-1.23-.2-1.23c-.33-1.4,2.23-3,5.89-3.71a12.46,12.46,0,0,1,5.27,0c1.46-1,4.56-1.77,8.19-1.77,3.31,0,6.2.58,7.79,1.51,1.56-.93,4.45-1.51,7.75-1.51,3.64,0,6.71.74,8.17,1.77a12.6,12.6,0,0,1,5.3,0c3.63.69,6.22,2.31,5.89,3.71,0,0-.16.89-.21,1.23s-.82,2.31-.82,2.31l-1.58.52-1.75,1.56-1.48.82a2.1,2.1,0,0,1-1.23.11A4.17,4.17,0,0,1-110-61.45a4.37,4.37,0,0,1-2.89.52,7.8,7.8,0,0,1-2.74-2.14s-2.1,1.73-3.64,1.42A6.46,6.46,0,0,1-122-63s-1.74,1.28-3.09,1.06a9,9,0,0,1-3.25-1.92Z" transform="translate(960 540)"/><ellipse class="cls-4" cx="831.54" cy="466.99" rx="3.53" ry="4.23"/><ellipse class="cls-4" cx="831.62" cy="466.99" rx="1.61" ry="3.91"/><ellipse class="cls-5" cx="831.59" cy="462.13" rx="2.38" ry="1.9"/><path class="cls-6" d="M-125.11-78.54v1.26h-6.47v-1.26h2.4v-2.81h-1.58V-82.6h1.58v-1.25h1.56v1.25H-126v1.25h-1.57v2.81h2.51" transform="translate(960 540)"/><path class="cls-7" d="M-127.72-79.66a1.87,1.87,0,0,1,1.58,2.37,2.53,2.53,0,0,1-3,1.26,1.86,1.86,0,0,1-1.57-2.37A2.2,2.2,0,0,1-129-79.68" transform="translate(960 540)"/><path class="cls-36" d="M-155.11-64.82a5.59,5.59,0,0,1-.56-2.33c0-3.44,3.22-6.23,7.24-6.23a8,8,0,0,1,3.51.8" transform="translate(960 540)"/><path class="cls-7" d="M-142.13-69.27a3.33,3.33,0,0,1-.74-1.82c0-2.48,3-4.49,6.75-4.49a9.29,9.29,0,0,1,4.23,1" transform="translate(960 540)"/><path class="cls-7" d="M-114.76-69.21a3.45,3.45,0,0,0,.64-1.88c0-2.48-3-4.49-6.76-4.49a9.17,9.17,0,0,0-4.2,1" transform="translate(960 540)"/><path class="cls-36" d="M-101.86-64.82a5.57,5.57,0,0,0,.54-2.33c0-3.44-3.23-6.23-7.22-6.23a8.11,8.11,0,0,0-3.54.8" transform="translate(960 540)"/><ellipse class="cls-37" cx="802.74" cy="472.35" rx="1.15" ry="0.93"/><ellipse class="cls-37" cx="803.17" cy="468.94" rx="1.15" ry="0.93"/><ellipse class="cls-37" cx="805.79" cy="466.34" rx="1.15" ry="0.93"/><ellipse class="cls-37" cx="809.24" cy="464.94" rx="1.15" ry="0.93"/><ellipse class="cls-37" cx="812.93" cy="465.07" rx="1.15" ry="0.93"/><ellipse class="cls-38" cx="815.18" cy="468.89" rx="1.15" ry="0.93"/><ellipse class="cls-37" cx="815.82" cy="465.65" rx="1.15" ry="0.93"/><ellipse class="cls-37" cx="818.71" cy="463.62" rx="1.15" ry="0.93"/><ellipse class="cls-37" cx="822.35" cy="462.65" rx="1.15" ry="0.93"/><ellipse class="cls-37" cx="826.04" cy="462.76" rx="1.15" ry="0.93"/><ellipse class="cls-37" cx="836.97" cy="462.76" rx="1.15" ry="0.93"/><ellipse class="cls-37" cx="840.68" cy="462.65" rx="1.15" ry="0.93"/><ellipse class="cls-37" cx="844.29" cy="463.62" rx="1.15" ry="0.93"/><ellipse class="cls-37" cx="847.18" cy="465.65" rx="1.15" ry="0.93"/><ellipse class="cls-38" cx="847.82" cy="468.89" rx="1.15" ry="0.93"/><ellipse class="cls-37" cx="850.07" cy="465.07" rx="1.15" ry="0.93"/><ellipse class="cls-37" cx="853.79" cy="464.94" rx="1.15" ry="0.93"/><ellipse class="cls-37" cx="857.24" cy="466.34" rx="1.15" ry="0.93"/><ellipse class="cls-37" cx="859.85" cy="468.94" rx="1.15" ry="0.93"/><ellipse class="cls-37" cx="860.29" cy="472.35" rx="1.15" ry="0.93"/><g id="crown_pt1-2" data-name="crown pt1"><path class="cls-4" d="M-146.56-55.62A9.74,9.74,0,0,0-148-57.95a87,87,0,0,1,19.63-2,87.4,87.4,0,0,1,19.69,2s-.57.82-1.33,2a14.62,14.62,0,0,0-1,1.75A72.28,72.28,0,0,0-128.44-56c-7.14,0-14,.76-17.56,1.86a9.75,9.75,0,0,0-.59-1.47h0" transform="translate(960 540)"/><path class="cls-4" d="M-128.41-50.26a95.1,95.1,0,0,0,15.62-1.36c1.69-.44,2.68-1.06,2.51-1.82a1.47,1.47,0,0,0-1-.82c-3.74-1-10.42-1.73-17.18-1.73s-13.49.72-17.2,1.73a1.43,1.43,0,0,0-.95.82c-.18.76.82,1.38,2.51,1.82A95.28,95.28,0,0,0-128.41-50.26Z" transform="translate(960 540)"/><path class="cls-4" d="M-108.42-60.31l-1.51-1.14a6.39,6.39,0,0,1-3.27.52,3.14,3.14,0,0,1-2.38-2.1,7.17,7.17,0,0,1-3.69,1.34A4.48,4.48,0,0,1-122-63a7,7,0,0,1-3.4,1,5.77,5.77,0,0,1-3.1-1.79,6.24,6.24,0,0,1-3.2,1.86,4.25,4.25,0,0,1-2.89-1.17,3.7,3.7,0,0,1-2.74,1.56,5.22,5.22,0,0,1-3.77-1.34,6,6,0,0,1-2.53,2,5.14,5.14,0,0,1-3.18-.59s-.3.59-.51.93-.79.41-.79.41l.46,1a84.34,84.34,0,0,1,19.28-2,85.23,85.23,0,0,1,19.48,2l.51-1.17Z" transform="translate(960 540)"/><path class="cls-4" d="M-128.36-65.9l.72.11a1.72,1.72,0,0,0-.16.82,2.62,2.62,0,0,0,2.87,2.27,2.91,2.91,0,0,0,2.72-1.58s.28-.82.38-.82.08.88.13.88a2.66,2.66,0,0,0,2.81,1.93A2.6,2.6,0,0,0-116-64.58a.74.74,0,0,0,0-.26l.9-.76.48.95a1.87,1.87,0,0,0-.25,1,2.48,2.48,0,0,0,2.71,2.19,2.88,2.88,0,0,0,2.25-1l.59-.62v.78a1.41,1.41,0,0,0,1.26,1.53,4.26,4.26,0,0,0,2.33-.82,13.75,13.75,0,0,0,2-1.62l.08.91a9.1,9.1,0,0,1-2.48,2.37,4.39,4.39,0,0,1-2.44.54,2.26,2.26,0,0,1-1.71-1.32,4.46,4.46,0,0,1-2,.48A4.06,4.06,0,0,1-116-62.08,4.39,4.39,0,0,1-119-61a4.57,4.57,0,0,1-3.23-1.25,4.46,4.46,0,0,1-2.79.93,4.42,4.42,0,0,1-3.4-1.49,4.51,4.51,0,0,1-3.43,1.49,4.44,4.44,0,0,1-2.79-.93A4.57,4.57,0,0,1-137.8-61a4.39,4.39,0,0,1-3-1.08,4.06,4.06,0,0,1-3.64,1.86,4.33,4.33,0,0,1-2-.48,2.23,2.23,0,0,1-1.74,1.32,4.32,4.32,0,0,1-2.4-.54,9.81,9.81,0,0,1-2.62-2.37l.18-.91A16,16,0,0,0-151-61.58a4.19,4.19,0,0,0,2.33.82,1.42,1.42,0,0,0,1.25-1.53v-.78l.56.62a2.92,2.92,0,0,0,2.26,1,2.48,2.48,0,0,0,2.71-2.19,1.64,1.64,0,0,0-.26-1l.49-.95.9.76a.74.74,0,0,0,0,.26,2.6,2.6,0,0,0,2.84,2.29,2.7,2.7,0,0,0,2.84-1.93s0-.88.11-.88.36.84.41.82a2.83,2.83,0,0,0,2.71,1.58A2.61,2.61,0,0,0-129-65a1.71,1.71,0,0,0-.13-.82l.75-.11Z" transform="translate(960 540)"/><path class="cls-8" d="M-128.41-60a87,87,0,0,0-19.63,2,.81.81,0,0,1-.85-.37.58.58,0,0,1,.46-.69,83.83,83.83,0,0,1,20-2.12,84.17,84.17,0,0,1,20,2.12.58.58,0,0,1,.46.69.82.82,0,0,1-.85.37A87.25,87.25,0,0,0-128.41-60Z" transform="translate(960 540)"/><path class="cls-4" d="M-154.62-62.64s-1-1-1.67-1.58a6.6,6.6,0,0,0-1.74-.71c0-.17.72-.6,1.49-.6a1.57,1.57,0,0,1,1.15.43l.1-.43a1.32,1.32,0,0,1,.9.69,3,3,0,0,1,.12,1.55,1.7,1.7,0,0,1-.35.65Z" transform="translate(960 540)"/><path class="cls-4" d="M-149.79-64.32l-.28,1.42-3.58.32-.54-.25.1-.5,2.72-1.88,1.58.89" transform="translate(960 540)"/><path class="cls-4" d="M-154.57-63.18a1.18,1.18,0,0,1,1.35.13c.46.32.62.82.31,1.08a1.12,1.12,0,0,1-1.36-.13C-154.73-62.42-154.88-62.92-154.57-63.18Z" transform="translate(960 540)"/><path class="cls-4" d="M-148-62.9a.66.66,0,0,1,.33-.91,1,1,0,0,1,.95.59.63.63,0,0,1-.36.9A.87.87,0,0,1-148-62.9Z" transform="translate(960 540)"/><path class="cls-4" d="M-146.33-64.71l1.31,1,3.12-1.42.23-.46-.44-.36-3.58-.26-.64,1.47" transform="translate(960 540)"/><path class="cls-4" d="M-142.72-69.64l-1.72,1.38,2.21,2.47.59.19.43-.39.77-3-2.28-.69" transform="translate(960 540)"/><path class="cls-4" d="M-136.88-66.31l-.67,1.36-3.58-.28-.46-.35.25-.47,3.13-1.39,1.33,1.13" transform="translate(960 540)"/><ellipse class="cls-4" cx="818.38" cy="474.44" rx="1.25" ry="1.02"/><path class="cls-4" d="M-135.58-64.91a.69.69,0,0,1,.54-.84.76.76,0,0,1,.77.71.67.67,0,0,1-.54.82A.75.75,0,0,1-135.58-64.91Z" transform="translate(960 540)"/><path class="cls-4" d="M-133.25-66.44l1,1.23,3.43-.91.35-.39-.38-.43-3.4-.84-1,1.34" transform="translate(960 540)"/><path class="cls-4" d="M-128.44-71l-2.2,1.13,1.64,3,.56.3.57-.3,1.64-3L-128.44-71" transform="translate(960 540)"/><path class="cls-4" d="M-123.6-66.44l-1,1.23-3.43-.91-.35-.39.35-.43,3.43-.84,1,1.34" transform="translate(960 540)"/><ellipse class="cls-4" cx="831.59" cy="473.49" rx="1.25" ry="1.02"/><path class="cls-4" d="M-121.16-64.91a.72.72,0,0,0-.57-.84.77.77,0,0,0-.77.71.68.68,0,0,0,.54.82A.8.8,0,0,0-121.16-64.91Z" transform="translate(960 540)"/><path class="cls-4" d="M-119.91-66.31l.67,1.36,3.58-.28.46-.35-.26-.47-3.12-1.39-1.33,1.13" transform="translate(960 540)"/><path class="cls-4" d="M-114.07-69.64l1.71,1.38-2.2,2.47-.59.19-.43-.39-.77-3,2.28-.69" transform="translate(960 540)"/><path class="cls-4" d="M-110.46-64.71l-1.31,1-3.12-1.42-.26-.46.49-.36,3.58-.26.62,1.47" transform="translate(960 540)"/><ellipse class="cls-4" cx="844.85" cy="474.44" rx="1.25" ry="1.02"/><path class="cls-4" d="M-108.77-62.9a.67.67,0,0,0-.34-.91.94.94,0,0,0-.94.59.63.63,0,0,0,.35.9A.88.88,0,0,0-108.77-62.9Z" transform="translate(960 540)"/><path class="cls-4" d="M-102.66-62.64s1-1,1.69-1.58a6.3,6.3,0,0,1,1.72-.71c0-.17-.72-.6-1.49-.6a1.57,1.57,0,0,0-1.15.43l-.1-.43a1.38,1.38,0,0,0-.92.69,3,3,0,0,0-.08,1.55,1.54,1.54,0,0,0,.33.65Z" transform="translate(960 540)"/><path class="cls-4" d="M-107.49-64.32l.28,1.42,3.58.32.54-.25-.13-.5-2.69-1.88-1.58.89" transform="translate(960 540)"/><path class="cls-4" d="M-102.63-63.18A1.2,1.2,0,0,0-104-63c-.46.32-.61.82-.3,1.08a1.15,1.15,0,0,0,1.38-.13C-102.45-62.42-102.32-62.92-102.63-63.18Z" transform="translate(960 540)"/></g><g id="crown_pt2-2" data-name="crown pt2"><path class="cls-9" d="M-147.92-55.51l.8-1.08,1.66.28-1,1.21-1.49-.41" transform="translate(960 540)"/><path class="cls-10" d="M-140.75-56.57l-1.77.24a.88.88,0,0,1-1-.56.73.73,0,0,1,.69-.76l1.8-.22,1.81-.23a.84.84,0,0,1,.95.54.71.71,0,0,1-.69.75l-1.82.24" transform="translate(960 540)"/><ellipse class="cls-11" cx="825.24" cy="482.33" rx="1.13" ry="0.89"/><path class="cls-9" d="M-128.33-57.28h-2.46a.79.79,0,0,1-.85-.67.75.75,0,0,1,.82-.67h5a.76.76,0,0,1,.85.67.79.79,0,0,1-.85.67h-2.53" transform="translate(960 540)"/><ellipse class="cls-11" cx="837.96" cy="482.33" rx="1.13" ry="0.89"/><path class="cls-10" d="M-116-56.57l1.76.24a.87.87,0,0,0,1-.56.7.7,0,0,0-.69-.76l-1.79-.22-1.82-.23a.81.81,0,0,0-.94.54.68.68,0,0,0,.69.75l1.82.24" transform="translate(960 540)"/><path class="cls-9" d="M-109-55.45l-.64-1.14-1.72.13.82,1.27,1.54-.26" transform="translate(960 540)"/><path class="cls-3" d="M-128.44-51.49a79.22,79.22,0,0,1-16.12-1.41,79.93,79.93,0,0,1,16.12-1.51,79.45,79.45,0,0,1,16.21,1.51A80.17,80.17,0,0,1-128.44-51.49Z" transform="translate(960 540)"/><path class="cls-12" d="M-125.52-51.67v-2.5M-127-51.58l0-2.66m-1.1,2.7v-2.72" transform="translate(960 540)"/><path class="cls-13" d="M-129-51.52v-2.74" transform="translate(960 540)"/><path class="cls-14" d="M-129.89-51.52v-2.74" transform="translate(960 540)"/><path class="cls-15" d="M-130.71-51.52v-2.74" transform="translate(960 540)"/><path class="cls-15" d="M-131.56-51.52v-2.74" transform="translate(960 540)"/><path class="cls-16" d="M-132.28-51.52v-2.74" transform="translate(960 540)"/><path class="cls-17" d="M-133.68-51.67l0-2.48m.69,2.53v-2.62" transform="translate(960 540)"/><path class="cls-18" d="M-135-51.78v-2.28m.67,2.35,0-2.44" transform="translate(960 540)"/><path class="cls-19" d="M-136.73-51.9v-2m.59,2V-54m.59,2.2V-54" transform="translate(960 540)"/><path class="cls-20" d="M-137.32-51.93v-1.94" transform="translate(960 540)"/><path class="cls-21" d="M-137.88-52v-1.84" transform="translate(960 540)"/><path class="cls-22" d="M-138.5-52.08v-1.68" transform="translate(960 540)"/><path class="cls-23" d="M-139.75-52.23l0-1.34m.67,1.43v-1.51" transform="translate(960 540)"/><path class="cls-23" d="M-140.39-52.34v-1.18" transform="translate(960 540)"/><path class="cls-24" d="M-141-52.42v-1" transform="translate(960 540)"/><path class="cls-25" d="M-141.62-52.55v-.78" transform="translate(960 540)"/><path class="cls-26" d="M-142.26-52.62v-.58" transform="translate(960 540)"/><path class="cls-27" d="M-142.95-52.75V-53" transform="translate(960 540)"/></g></g><g id="pillar_right" data-name="pillar right"><g id="pillar_left-2" data-name="pillar left"><path class="cls-28" d="M-88.45,174.27a25.14,25.14,0,0,1-10.06-1.88,25.75,25.75,0,0,0-9.88-1.77,26.43,26.43,0,0,0-10,1.79,25.48,25.48,0,0,1-10,1.86,25,25,0,0,1-10.06-2,26.2,26.2,0,0,0-9.7-1.7,25,25,0,0,0-9.88,1.75,25.67,25.67,0,0,1-10.11,1.9v5.2a25.85,25.85,0,0,0,10.11-1.9,25.2,25.2,0,0,1,9.88-1.77,26.08,26.08,0,0,1,9.7,1.73,25.36,25.36,0,0,0,10.06,1.94,25.67,25.67,0,0,0,10-1.85,25.83,25.83,0,0,1,10-1.82,25.53,25.53,0,0,1,9.88,1.8,25.07,25.07,0,0,0,10,1.87l0-5.2Z" transform="translate(960 540)"/><path class="cls-29" d="M-88.45,179.47a25.33,25.33,0,0,1-10.06-1.87,25.53,25.53,0,0,0-9.88-1.8,25.83,25.83,0,0,0-10,1.82,25.67,25.67,0,0,1-10,1.85,25.36,25.36,0,0,1-10.06-1.94,26,26,0,0,0-9.7-1.73,25.2,25.2,0,0,0-9.88,1.77,25.85,25.85,0,0,1-10.11,1.9v5.21a26,26,0,0,0,10.11-1.9A25.2,25.2,0,0,1-148.2,181a26.08,26.08,0,0,1,9.7,1.73,25.19,25.19,0,0,0,10.06,1.94,25.84,25.84,0,0,0,10-1.86,26,26,0,0,1,10-1.81,25.34,25.34,0,0,1,9.88,1.81,25.25,25.25,0,0,0,10,1.86l0-5.21" transform="translate(960 540)"/><path class="cls-28" d="M-88.45,184.68a25.51,25.51,0,0,1-10.06-1.86,25.34,25.34,0,0,0-9.88-1.81,26,26,0,0,0-10,1.81,25.84,25.84,0,0,1-10,1.86,25.19,25.19,0,0,1-10.06-1.94,26,26,0,0,0-9.7-1.73,25.2,25.2,0,0,0-9.88,1.77,26,26,0,0,1-10.11,1.9v5.18a25.49,25.49,0,0,0,10.11-1.9,25.63,25.63,0,0,1,9.88-1.72,26.11,26.11,0,0,1,9.7,1.7,25,25,0,0,0,10.06,1.92,25.69,25.69,0,0,0,10-1.83,25.86,25.86,0,0,1,10-1.79A25.56,25.56,0,0,1-98.51,188a24.74,24.74,0,0,0,10,1.85l0-5.18" transform="translate(960 540)"/><path class="cls-29" d="M-88.5,195.09a24.89,24.89,0,0,1-10-1.88,25.75,25.75,0,0,0-9.88-1.77,26.05,26.05,0,0,0-10,1.79,25.84,25.84,0,0,1-10,1.86,25.54,25.54,0,0,1-10.06-1.94,25.59,25.59,0,0,0-9.7-1.71,25.22,25.22,0,0,0-9.88,1.75,25.85,25.85,0,0,1-10.11,1.9v-5.18A25.45,25.45,0,0,0-158.08,188a25.63,25.63,0,0,1,9.88-1.72,26.11,26.11,0,0,1,9.7,1.7,25,25,0,0,0,10.06,1.92,25.69,25.69,0,0,0,10-1.83,25.86,25.86,0,0,1,10-1.79A25.56,25.56,0,0,1-98.51,188a25,25,0,0,0,10.06,1.85l0,5.23" transform="translate(960 540)"/><path class="cls-28" d="M-88.5,200.3a25.43,25.43,0,0,1-10-1.86,25.33,25.33,0,0,0-9.88-1.82,26,26,0,0,0-10,1.82,26,26,0,0,1-10,1.86,25.35,25.35,0,0,1-10.06-2,25.57,25.57,0,0,0-9.7-1.73,25,25,0,0,0-9.88,1.78,26,26,0,0,1-10.11,1.9v-5.17a25.81,25.81,0,0,0,10.11-1.94,25.22,25.22,0,0,1,9.88-1.75,26.1,26.1,0,0,1,9.7,1.71,25.54,25.54,0,0,0,10.06,1.94,25.84,25.84,0,0,0,10-1.86,26.05,26.05,0,0,1,10-1.79,25.75,25.75,0,0,1,9.88,1.77,25,25,0,0,0,10.06,1.88l0,5.21Z" transform="translate(960 540)"/><path class="cls-30" d="M-150.81,152.88a5,5,0,0,1,.33,1.34c0,3.16-3.25,5.68-7.19,5.68h58.73c-4,0-7.2-2.52-7.2-5.68a4.9,4.9,0,0,1,.23-1.34A3.7,3.7,0,0,1-107,153h-42.73A4.08,4.08,0,0,1-150.81,152.88Z" transform="translate(960 540)"/><path class="cls-31" d="M-149.76,149.62H-107c1.46,0,2.61.76,2.61,1.69s-1.15,1.7-2.61,1.7h-42.73c-1.43,0-2.61-.77-2.61-1.7S-151.19,149.62-149.76,149.62Z" transform="translate(960 540)"/><path class="cls-31" d="M-157.59,172.5H-99V159.9h-58.54Z" transform="translate(960 540)"/><path class="cls-29" d="M-149.2,147.57h41.6v-172h-41.6Z" transform="translate(960 540)"/><path class="cls-32" d="M-119.55-24.19V147.44m4.68-171.63V147.44" transform="translate(960 540)"/><path class="cls-31" d="M-156.8-38.08h57.06V-50.7H-156.8v12.62Z" transform="translate(960 540)"/><path class="cls-30" d="M-150.81-29.68a2.7,2.7,0,0,1,1.05-.15H-107a4.23,4.23,0,0,1,1.17.17,3.14,3.14,0,0,1-2.53-2.85,3.27,3.27,0,0,1,2.64-2.87,5.64,5.64,0,0,1-1.26.17h-42.75a4.13,4.13,0,0,1-1.2-.13l.23.05a2.92,2.92,0,0,1,2.4,2.78,3.12,3.12,0,0,1-2.48,2.83Z" transform="translate(960 540)"/><path class="cls-31" d="M-149.76-29.83H-107c1.46,0,2.61.76,2.61,1.69s-1.15,1.7-2.61,1.7h-42.73c-1.43,0-2.61-.75-2.61-1.7S-151.19-29.83-149.76-29.83Z" transform="translate(960 540)"/><path class="cls-31" d="M-149.76-38.08H-107c1.46,0,2.64.65,2.64,1.42s-1.18,1.45-2.64,1.45h-42.75c-1.43,0-2.61-.65-2.61-1.45S-151.19-38.08-149.76-38.08Z" transform="translate(960 540)"/></g></g><g id="ribbon_right" data-name="ribbon right"><g id="ribbon_left-2" data-name="ribbon left"><path class="cls-33" d="M-94.49,105c5.79,2.81,9.73,5.7,9.09,7.15-.31,1.32-2.15,2.31-4.79,3.78-4.15,2.44-6.65,6.78-4.68,8.79a11.86,11.86,0,0,1-5.61-9.7A12,12,0,0,1-94.49,105Z" transform="translate(960 540)"/><path class="cls-34" d="M-191.56,39.9c9.06-3.16,24.49-5.51,42.21-6a155.33,155.33,0,0,1,19.94,1.51c24.89,3.52,43.85,11.9,42.34,18.73,0,.13-.1.43-.12.56s9.31-17.73,9.47-18.4c1.66-7.58-19.36-16.89-47-20.78a165.86,165.86,0,0,0-24.47-1.64c-17.67,0-33,1.92-42.29,4.81l-.1,21.22" transform="translate(960 540)"/><path class="cls-33" d="M-107.39,61.5c11.54-.7,19.4-3.31,20.32-7.37.72-3.24-3.2-6.85-10.16-10.11-3.1.3-6.6.65-10.24.65l.08,16.83" transform="translate(960 540)"/><path class="cls-33" d="M-149.15,48.34c-7.21.93-12.62,2.44-15.3,4.3l-.26.37c-1.28,2.22,5,7,15.64,12.24l-.08-16.91" transform="translate(960 540)"/><path class="cls-34" d="M-81.54,94.67c1.1-2.76-10.16-8.33-26.06-13.26-7.27-2.18-13.26-4.47-20.71-7.24-22.09-8.25-38.4-17.71-36.4-21.14l.23-.37c-1.18.82-3,17.8-3,17.8-2,3.15,12.93,12.48,33.28,20.69,6.5,2.64,20.25,6.91,26.73,8.84,11.62,3.39,23.14,9.8,22.09,12.18l3.86-17.48v0Z" transform="translate(960 540)"/></g></g><g id="plus_ultra" data-name="plus ultra"><path class="cls-5" d="M-534,31.64c5.09-1.55,8.42-3.41,6.8-6.78-1-2.16-3.66-2.57-7.6-1.36l-6.94,2.14,6.25,13c.69-.26,1.38-.51,2.07-.73s1.46-.39,2.18-.56l-2.76-5.7v0Zm-3-6.28,1.77-.54a3.21,3.21,0,0,1,3.84,1.73c.54,1.14.41,2.44-1.28,3.34a13.64,13.64,0,0,1-1.79.72L-537,25.36" transform="translate(960 540)"/><path class="cls-5" d="M-517.68,19.92c-.75.17-1.46.34-2.2.47s-1.52.19-2.26.26l3.61,13.56,11.21-1.9a4.13,4.13,0,0,1-.35-.82,5.57,5.57,0,0,1-.11-.88c-2,.47-4.12,1-6.68,1.42l-3.22-12.11" transform="translate(960 540)"/><path class="cls-5" d="M-495.21,31.6c2.1-4.92,4.66-9.63,7.2-14.41a12.84,12.84,0,0,1-1.39.15,10.59,10.59,0,0,1-1.38,0,110.58,110.58,0,0,1-4.78,10.37c-2.1-3.26-4.43-6.46-6.23-9.74-.87.09-1.76.2-2.63.26s-1.79,0-2.66,0c3.22,4.45,6.34,8.88,9.31,13.46.41-.06.82-.13,1.28-.17s.85,0,1.28,0" transform="translate(960 540)"/><path class="cls-5" d="M-471.76,21.17c.39-.67.8-1.3,1.23-1.92a10.28,10.28,0,0,0-4.63-1.37c-4.58-.38-7.2,1.32-7.5,3.66-.67,4.88,8.47,4.47,8,7.71-.18,1.38-1.92,1.94-3.79,1.79-2.08-.17-3.61-1.15-3.87-2.57l-.56,0a15,15,0,0,1-1.23,2.48,12.43,12.43,0,0,0,4.74,1.27c4.68.41,8.24-1.16,8.57-3.75.59-4.65-8.63-4.91-8.27-7.65.16-1.15,1.21-1.9,3.59-1.71a3.51,3.51,0,0,1,3.22,2.05l.46.05" transform="translate(960 540)"/><path class="cls-5" d="M-165.63,32.36c1.59-5,3.61-9.9,5.6-14.84a9.75,9.75,0,0,1-1.35.24c-.44.06-.92.08-1.38.1a105,105,0,0,1-3.64,10.67c-2.46-3.11-5.12-6.13-7.24-9.28-.88.15-1.75.32-2.62.43s-1.76.15-2.66.24c3.71,4.19,7.3,8.4,10.75,12.76a9.65,9.65,0,0,1,1.28-.26c.41,0,.85,0,1.26-.06" transform="translate(960 540)"/><path class="cls-5" d="M-149.81,17.63c-.74,0-1.51.08-2.25.06s-1.54-.09-2.28-.13l-.31,13.85,11.49.17a4,4,0,0,1-.15-.89,3.3,3.3,0,0,1,.18-.86c-2.07.11-4.3.22-6.94.17l.26-12.37" transform="translate(960 540)"/><path class="cls-5" d="M-131.79,19.89c1.84.13,3.61.41,5.38.67a4.25,4.25,0,0,1,0-.88,3.35,3.35,0,0,1,.25-.84l-15.54-1.08a4.22,4.22,0,0,1,.05.86,3.26,3.26,0,0,1-.25.86c1.59,0,3.51,0,5.66.11l-1.36,12.46c.74,0,1.51,0,2.25.07s1.51.15,2.25.24l1.36-12.47" transform="translate(960 540)"/><path class="cls-5" d="M-125.41,33.54c.74.11,1.51.2,2.25.33s1.46.32,2.17.5l1.85-6.35.2,0c.41.88,1,1.94,1.26,2.57l2.3,4.79c.92.13,1.82.24,2.69.39s1.79.39,2.66.61l-.79-1.45c-1.23-2.16-2.54-4.34-3.61-6.52,2.87.08,5.07-.78,5.63-2.73.38-1.34-.26-2.39-1.74-3.3a17.59,17.59,0,0,0-4.69-1.3L-121.47,20l-3.94,13.58m8-11.7c1.82.34,4.07.58,4.07,2.31a4.44,4.44,0,0,1-.15,1c-.59,2-2.41,2.72-5.45,2l1.53-5.31" transform="translate(960 540)"/><path class="cls-5" d="M-95.82,37.71a39,39,0,0,1-.79,4.54c.76.3,1.56.58,2.3,1s1.46.73,2.2,1.12l1.54-15.61c-.36-.13-.69-.26-1.05-.41a9.61,9.61,0,0,1-.95-.52l-16.33,8.75c.43.17.89.34,1.3.54s.8.41,1.21.6c1.38-1,2.81-1.77,4.45-2.81l6.12,2.83Zm-4.63-3.58,5.45-3-.64,5.18-4.81-2.22" transform="translate(960 540)"/></g></g><g id="crown_crest" data-name="crown crest"><path class="cls-9" d="M-320.9-145.32c17,0,32.16,2.13,42,5.42,5.64,2.16,13.21,3.73,21.51,4.68a100.77,100.77,0,0,0,17.53.52c7-.13,17.08,1.6,27.19,5.36,8.35,3.13,15.34,6.93,20,10.6l-4,3-1.15,8.55-11,10.63-5.5,4-13,8.79-6.66.46-2,4.86-84.25-8.34-84.53,8.34-2-4.86-6.68-.46-13-8.79-5.51-4-11-10.63-1.13-8.55-4.05-3c4.66-3.67,11.63-7.47,20-10.6,10.11-3.76,20.2-5.49,27.19-5.36a100.91,100.91,0,0,0,17.54-.52c8.29-.95,15.87-2.52,21.5-4.68,9.88-3.29,24.17-5.42,41.16-5.42Z" transform="translate(960 540)"/><path class="cls-31" d="M-383.13-126.53l3.53,2.39,5.33-7.34c-5.76-3-9.73-8.16-9.73-14.06a12.87,12.87,0,0,1,.15-2c.54-9.37,14.08-17.1,31.24-17.1,8.9,0,17,2.05,22.63,5.35.15-1.44.3-2.7.53-4a53.18,53.18,0,0,0-23.16-4.93c-19.74,0-35.18,9.48-35.92,20.67a16.62,16.62,0,0,0-.13,2c0,6,3.23,11.36,8.35,15.1l-2.82,3.91" transform="translate(960 540)"/><path class="cls-31" d="M-382.9-126.45c-6.73-4.25-10.93-10-10.93-16.37,0-7.3,5.68-13.82,14.28-18.16-5.29,3.6-8.52,8.27-9,13.45a16.62,16.62,0,0,0-.13,2c0,6,3.23,11.36,8.35,15.1l-2.59,4" transform="translate(960 540)"/><path class="cls-31" d="M-442.34-119a18.16,18.16,0,0,1-6.1-13.22,17.15,17.15,0,0,1,2.33-8.53c5.46-9.46,22.58-16.35,42.91-16.35a82.81,82.81,0,0,1,15.72,1.45,24.25,24.25,0,0,0-2.77,3.19,80,80,0,0,0-12.95-1c-18.61,0-34.2,6.11-38.71,14.36a13.87,13.87,0,0,0-1.87,6.91c0,5,2.79,9.51,7.15,12.57l-6.74,9.29-3.61-2.42,4.64-6.22Z" transform="translate(960 540)"/><path class="cls-31" d="M-435.46-150.16c-4.89,2.61-8.6,5.81-10.65,9.37a17.15,17.15,0,0,0-2.33,8.53,18.16,18.16,0,0,0,6.1,13.22l-4.1,5.6c-3.92-4.24-6.19-9.2-6.19-14.48,0-9.07,6.83-17,17.17-22.24Z" transform="translate(960 540)"/><path class="cls-31" d="M-319.9-170.06c4.51,0,8.4,2.51,9.32,5.9a58.57,58.57,0,0,1,1.05,10c0,.39,0,.76,0,1.12s.11.89.13,1.32c.16,7.6,1.44,14.3,3.25,18.4l-13.72,11.11-13.9-11.11c1.84-4.1,3.12-10.8,3.3-18.4,0-.43.11-.89.11-1.32s0-.73,0-1.12a58.57,58.57,0,0,1,1.05-10c.92-3.39,5-5.9,9.47-5.9Z" transform="translate(960 540)"/><path class="cls-31" d="M-319.9-166.45c2.33,0,4.3,1.25,4.79,3a52.12,52.12,0,0,1,1,9.46c0,.35,0,.69,0,1s.07.84.1,1.27c.13,7.18,1.36,13.5,3.1,17.39L-320-127l-9.07-7.24c1.72-3.89,3-10.21,3.1-17.39,0-.43.1-.84.1-1.27s0-.69,0-1a52.12,52.12,0,0,1,1-9.46C-324.38-165.2-322.23-166.45-319.9-166.45Z" transform="translate(960 540)"/><path class="cls-31" d="M-256.77-126.53l-3.56,2.39-5.32-7.34c5.78-3,9.75-8.16,9.75-14.06a12.87,12.87,0,0,0-.15-2c-.54-9.37-14.08-17.1-31.23-17.1-8.94,0-17,2.05-22.63,5.35-.16-1.44-.31-2.7-.57-4a53.36,53.36,0,0,1,23.2-4.93c19.73,0,35.17,9.48,35.91,20.67a16.62,16.62,0,0,1,.13,2c0,6-3.25,11.36-8.37,15.1l2.84,3.91" transform="translate(960 540)"/><path class="cls-31" d="M-257-126.45c6.73-4.25,10.93-10,10.93-16.37,0-7.3-5.68-13.82-14.28-18.16,5.3,3.6,8.52,8.27,9,13.45a16.62,16.62,0,0,1,.13,2c0,6-3.25,11.36-8.37,15.1l2.61,4" transform="translate(960 540)"/><path class="cls-31" d="M-197.56-119a18.23,18.23,0,0,0,6.1-13.22,17.15,17.15,0,0,0-2.33-8.53c-5.48-9.46-22.58-16.35-42.91-16.35a83.18,83.18,0,0,0-15.74,1.45,23,23,0,0,1,2.79,3.19,79.68,79.68,0,0,1,13-1c18.61,0,34.18,6.11,38.68,14.36a13.77,13.77,0,0,1,1.87,6.91c0,5-2.79,9.51-7.14,12.57l6.73,9.29,3.64-2.42Z" transform="translate(960 540)"/><path class="cls-31" d="M-204.44-150.16c4.89,2.61,8.6,5.81,10.65,9.37a17.15,17.15,0,0,1,2.33,8.53,18.23,18.23,0,0,1-6.1,13.22l4.1,5.6c3.92-4.24,6.17-9.2,6.17-14.48,0-9.07-6.83-17-17.15-22.24Z" transform="translate(960 540)"/><ellipse class="cls-39" cx="640.13" cy="361.37" rx="11.34" ry="9.07"/><path class="cls-4" d="M-322.84-204v4.88H-329v5h6.2v14.27h-7.81c-.08.46-.56.8-.56,1.28a7.35,7.35,0,0,0,.89,3.54s.05,0,.08.07h20.79s.05,0,.07-.07a7.59,7.59,0,0,0,.9-3.54c0-.48-.49-.82-.56-1.28h-7.58v-14.27h6.19v-5h-6.19V-204Z" transform="translate(960 540)"/><ellipse class="cls-40" cx="640.1" cy="408.11" rx="4.89" ry="3.89"/><ellipse class="cls-40" cx="640.1" cy="400.46" rx="4.89" ry="3.89"/><ellipse class="cls-40" cx="640.1" cy="392.26" rx="3.89" ry="3.11"/><ellipse class="cls-40" cx="640.1" cy="384.87" rx="2.82" ry="2.25"/><ellipse class="cls-40" cx="640.1" cy="378.39" rx="2.25" ry="1.79"/><ellipse class="cls-40" cx="509.29" cy="429.13" rx="2.82" ry="2.25"/><ellipse class="cls-40" cx="505.45" cy="423.4" rx="2.82" ry="2.25"/><ellipse class="cls-40" cx="502.89" cy="416.75" rx="2.82" ry="2.25"/><ellipse class="cls-40" cx="502.55" cy="409.62" rx="2.82" ry="2.25"/><ellipse class="cls-40" cx="504.63" cy="402.62" rx="2.82" ry="2.25"/><ellipse class="cls-40" cx="508.95" cy="396.25" rx="2.82" ry="2.25"/><ellipse class="cls-40" cx="514.71" cy="391" rx="2.82" ry="2.25"/><ellipse class="cls-40" cx="521.42" cy="386.66" rx="2.82" ry="2.25"/><ellipse class="cls-40" cx="529.41" cy="383.1" rx="2.82" ry="2.25"/><ellipse class="cls-40" cx="537.7" cy="380.57" rx="2.82" ry="2.25"/><ellipse class="cls-40" cx="546.97" cy="379.17" rx="2.82" ry="2.25"/><ellipse class="cls-40" cx="555.78" cy="378.78" rx="2.82" ry="2.25"/><ellipse class="cls-40" cx="564.4" cy="379.04" rx="2.82" ry="2.25"/><ellipse class="cls-40" cx="573.98" cy="411.09" rx="2.82" ry="2.25"/><ellipse class="cls-40" cx="569.19" cy="405.32" rx="2.82" ry="2.25"/><ellipse class="cls-40" cx="566.66" cy="399.06" rx="2.82" ry="2.25"/><ellipse class="cls-40" cx="566.96" cy="392.19" rx="2.82" ry="2.25"/><ellipse class="cls-40" cx="568.73" cy="385.28" rx="2.82" ry="2.25"/><ellipse class="cls-40" cx="573.03" cy="379.04" rx="2.82" ry="2.25"/><ellipse class="cls-40" cx="579.58" cy="374.7" rx="2.82" ry="2.25"/><ellipse class="cls-40" cx="587.24" cy="371.11" rx="2.82" ry="2.25"/><ellipse class="cls-40" cx="595.71" cy="368.97" rx="2.82" ry="2.25"/><ellipse class="cls-40" cx="604.49" cy="367.7" rx="2.82" ry="2.25"/><ellipse class="cls-40" cx="613.12" cy="367.8" rx="2.82" ry="2.25"/><ellipse class="cls-40" cx="622.05" cy="369.08" rx="2.82" ry="2.25"/><ellipse class="cls-40" cx="630.35" cy="371.5" rx="2.82" ry="2.25"/><ellipse class="cls-40" cx="649.73" cy="371.5" rx="2.82" ry="2.25"/><ellipse class="cls-40" cx="658.02" cy="369.08" rx="2.82" ry="2.25"/><ellipse class="cls-40" cx="666.98" cy="367.8" rx="2.82" ry="2.25"/><ellipse class="cls-40" cx="675.58" cy="367.7" rx="2.82" ry="2.25"/><ellipse class="cls-40" cx="684.39" cy="368.97" rx="2.82" ry="2.25"/><ellipse class="cls-40" cx="692.84" cy="371.11" rx="2.82" ry="2.25"/><ellipse class="cls-40" cx="700.52" cy="374.7" rx="2.82" ry="2.25"/><ellipse class="cls-40" cx="707.05" cy="379.04" rx="2.82" ry="2.25"/><ellipse class="cls-40" cx="711.37" cy="385.28" rx="2.82" ry="2.25"/><ellipse class="cls-40" cx="713.14" cy="392.19" rx="2.82" ry="2.25"/><ellipse class="cls-40" cx="713.45" cy="399.06" rx="2.82" ry="2.25"/><ellipse class="cls-40" cx="710.89" cy="405.32" rx="2.82" ry="2.25"/><ellipse class="cls-40" cx="706.12" cy="411.09" rx="2.82" ry="2.25"/><ellipse class="cls-40" cx="715.7" cy="379.04" rx="2.82" ry="2.25"/><ellipse class="cls-40" cx="724.33" cy="378.78" rx="2.82" ry="2.25"/><ellipse class="cls-40" cx="733.13" cy="379.17" rx="2.82" ry="2.25"/><ellipse class="cls-40" cx="742.4" cy="380.57" rx="2.82" ry="2.25"/><ellipse class="cls-40" cx="750.69" cy="383.1" rx="2.82" ry="2.25"/><ellipse class="cls-40" cx="758.68" cy="386.66" rx="2.82" ry="2.25"/><ellipse class="cls-40" cx="765.36" cy="391" rx="2.82" ry="2.25"/><ellipse class="cls-40" cx="771.12" cy="396.25" rx="2.82" ry="2.25"/><ellipse class="cls-40" cx="775.45" cy="402.62" rx="2.82" ry="2.25"/><ellipse class="cls-40" cx="777.52" cy="409.62" rx="2.82" ry="2.25"/><ellipse class="cls-40" cx="777.22" cy="416.75" rx="2.82" ry="2.25"/><ellipse class="cls-40" cx="774.66" cy="423.4" rx="2.82" ry="2.25"/><ellipse class="cls-40" cx="770.82" cy="429.13" rx="2.82" ry="2.25"/><path class="cls-31" d="M-319.62-51.45c-31.38,0-59.52-3.18-79.59-8.27a2.66,2.66,0,0,1-2.15-2.7,2.62,2.62,0,0,1,2.15-2.53c20.07-5.1,48.21-8.23,79.59-8.27S-260.1-70-240-64.95a2.59,2.59,0,0,1,2.13,2.53,2.65,2.65,0,0,1-2.13,2.7c-20.07,5.09-48.17,8.23-79.59,8.27" transform="translate(960 540)"/><path class="cls-31" d="M-319.82-73.25c-31.77.07-60.29,3.42-80.36,8.64,1.66-.67,1.51-2.41-.56-6.91-2.51-5.46-6.4-5.22-6.4-5.22,22.17-5.53,53.07-9,87.45-9s65.53,3.5,87.73,9c0,0-3.92-.24-6.43,5.22-2.07,4.5-2.22,6.24-.53,6.91-20.08-5.22-49.13-8.57-80.9-8.64" transform="translate(960 540)"/><path class="cls-31" d="M-319.69-85.75c-34.38,0-65.28,3.5-87.45,9-1.49.36-3.05-.11-3.54-1.3a2.25,2.25,0,0,1,1.8-2.92c22.29-5.76,54-9.39,89.19-9.46s67,3.7,89.34,9.46A2.24,2.24,0,0,1-228.56-78c-.48,1.19-2,1.66-3.53,1.3-22.19-5.53-53.2-9-87.6-9" transform="translate(960 540)"/><path class="cls-31" d="M-319.49-108.48l3.15.48a8.41,8.41,0,0,0-.61,3.52c0,5.55,5.65,10,12.59,10,5.58,0,10.34-2.91,12-6.93.2.11,1.2-3.63,1.74-3.58s.38,3.88.56,3.82c.79,5,6.3,8.49,12.47,8.49,6.94,0,12.57-4.5,12.57-10a7.29,7.29,0,0,0-.1-1.23l3.94-3.28,2.12,4.19a8,8,0,0,0-1.18,4.38c0,5.32,5.38,9.59,12,9.59a13,13,0,0,0,10-4.25l2.53-2.7,0,3.3c0,3.35,1.69,6.33,5.53,6.87,0,0,4.43.22,10.32-3.67a64.54,64.54,0,0,0,9.09-7.11l.51,3.89s-4.86,6.37-10.16,9c-2.92,1.42-7.32,2.91-10.83,2.44A10.16,10.16,0,0,1-239-87.22a20.34,20.34,0,0,1-9.09,2.09c-7.19,0-13.64-3.32-16.17-8.33a19.46,19.46,0,0,1-13.32,4.86,20.15,20.15,0,0,1-14.26-5.53,20.47,20.47,0,0,1-12.49,4c-6.35,0-12-2.64-15.2-6.59-3.21,4-8.86,6.59-15.21,6.59a20.43,20.43,0,0,1-12.47-4,20.2,20.2,0,0,1-14.28,5.53,19.37,19.37,0,0,1-13.29-4.86c-2.56,5-9,8.33-16.18,8.33a20.31,20.31,0,0,1-9.09-2.09,10.19,10.19,0,0,1-7.73,5.92c-3.48.47-7.88-1-10.8-2.44-5.33-2.6-10.19-9-10.19-9l.51-3.89a65.44,65.44,0,0,0,9.12,7.11c5.86,3.91,10.29,3.67,10.29,3.67,3.86-.54,5.53-3.52,5.53-6.87l0-3.3,2.53,2.7a13,13,0,0,0,10,4.25c6.63,0,12-4.27,12-9.59A8,8,0,0,0-380-103l2.12-4.19,3.94,3.28a10.2,10.2,0,0,0-.1,1.23c0,5.55,5.63,10,12.57,10,6.2,0,11.68-3.44,12.49-8.49.16.06.13-3.78.57-3.82s1.53,3.69,1.71,3.58c1.64,4,6.38,6.93,12,6.93,6.94,0,12.57-4.49,12.57-10a7.69,7.69,0,0,0-.61-3.52l3.3-.48" transform="translate(960 540)"/><path class="cls-31" d="M-426.57-94.35a4.87,4.87,0,0,0-1.85-2.29c-2-1.47-4.71-1.7-6-.54a2.13,2.13,0,0,0-.43.54s-2.84-4.49-6.17-6-8.94-1.13-8.94-1.13c0-3.45,3.33-6.24,7.66-6.24a8.86,8.86,0,0,1,6.35,2.4l.59-2.31a7.36,7.36,0,0,1,5.06,3.93c1.59,3.35-.15,8.21-.15,8.21a13.6,13.6,0,0,1,2.18-3.48c1.3-1.38,4.63-2.9,6.37-3.59a30.26,30.26,0,0,0,3.51-1.7s.07.39.13,1.31a9.63,9.63,0,0,1,0,1.8,24.47,24.47,0,0,1,9.81,1,12.19,12.19,0,0,1-6.71,5s1.12.78,2.12,1.62A10,10,0,0,1-412-94.76l-3.25.41a50,50,0,0,1-6.89.48c-1.59-.09-3.38-.31-4.45-.48" transform="translate(960 540)"/><path class="cls-33" d="M-434.46-97.18c1.33-1.16,4-.93,6,.54s2.62,3.59,1.31,4.73-4,.91-6-.54-2.61-3.58-1.31-4.73" transform="translate(960 540)"/><path class="cls-40" d="M-406-95.23c-.72-1.8-.08-3.57,1.46-4s3.38.72,4.09,2.51.08,3.56-1.46,4-3.35-.73-4.09-2.52" transform="translate(960 540)"/><path class="cls-31" d="M-381.13-104a4,4,0,0,1-1.72-2.34,3.3,3.3,0,0,1,.59-2.65,31,31,0,0,0-4.68-1.49,35.21,35.21,0,0,0-6.07-.43c-1,0-2.95-.07-2.95-.07a12.38,12.38,0,0,0,.72,1.19,15.9,15.9,0,0,0,1.28,1.62,13.67,13.67,0,0,0-7.76,4.51,16.18,16.18,0,0,0,9.22,2.1,9.42,9.42,0,0,0-.51,1.86,9.41,9.41,0,0,0-.15,1.31l2.73-.84a34.71,34.71,0,0,0,5.51-2.07,26.2,26.2,0,0,0,3.79-2.7" transform="translate(960 540)"/><path class="cls-31" d="M-382.26-126a12,12,0,0,1,5.89,6.55,4.63,4.63,0,0,1,1.82-1.28,7,7,0,0,1,2.79-.69s-.44,2.1-.64,2.85-.23,3-.82,5a16,16,0,0,1-1.62,3.62,5.76,5.76,0,0,0-4-.88,4.88,4.88,0,0,0-3.38,1.94,19.48,19.48,0,0,1-3.1-3c-1.4-1.75-2.38-3.84-2.89-4.49s-1.84-2.48-1.84-2.48a6.77,6.77,0,0,1,2.92-.11,5.22,5.22,0,0,1,2.25.69,9.82,9.82,0,0,1,2.66-7.76" transform="translate(960 540)"/><path class="cls-31" d="M-373.84-105a3.28,3.28,0,0,0,.62-2.66,3.72,3.72,0,0,0-1.69-2.31,25.91,25.91,0,0,1,3.76-2.72,33.67,33.67,0,0,1,5.51-2.05l2.73-.86a9.58,9.58,0,0,1-.15,1.31,10,10,0,0,1-.51,1.88,15.92,15.92,0,0,1,9.24,2.12,13.71,13.71,0,0,1-7.78,4.49,14.18,14.18,0,0,1,1.28,1.6,11.57,11.57,0,0,1,.71,1.21l-2.94-.07a35.21,35.21,0,0,1-6.07-.43,32.07,32.07,0,0,1-4.71-1.49" transform="translate(960 540)"/><ellipse class="cls-33" cx="582.07" cy="432.97" rx="5.56" ry="4.45"/><path class="cls-40" d="M-351.33-104.18a3,3,0,0,1,2.38-3.67,3.42,3.42,0,0,1,3.43,3.11c.28,1.86-.77,3.52-2.38,3.67a3.45,3.45,0,0,1-3.43-3.11" transform="translate(960 540)"/><path class="cls-31" d="M-323.84-108.37a4,4,0,0,1-1.36-2.87,3.88,3.88,0,0,1,1.31-2.85,30.26,30.26,0,0,0-4.84-2.42,40.62,40.62,0,0,0-6.66-1.45l-3.27-.52a11,11,0,0,0,.51,1.45,14.81,14.81,0,0,0,1,2,16.81,16.81,0,0,0-9.75,3.8,17.06,17.06,0,0,0,9.75,3.78,13.41,13.41,0,0,0-1,2,9.85,9.85,0,0,0-.51,1.45l3.27-.52a39.59,39.59,0,0,0,6.66-1.45,35.55,35.55,0,0,0,4.89-2.4" transform="translate(960 540)"/><path class="cls-31" d="M-319.72-133.14a12.15,12.15,0,0,1,5,8.25A5.29,5.29,0,0,1-312.4-126a8.16,8.16,0,0,1,3.28-.34s-1,2.27-1.41,3.07-1,3.3-2.15,5.46a18.46,18.46,0,0,1-2.69,3.8,6.24,6.24,0,0,0-4.27-1.62,6.23,6.23,0,0,0-4.28,1.62,18.64,18.64,0,0,1-2.68-3.8c-1.16-2.16-1.72-4.67-2.16-5.46s-1.43-3.07-1.43-3.07a8.15,8.15,0,0,1,3.28.34,5.5,5.5,0,0,1,2.35,1.15,12.17,12.17,0,0,1,4.84-8.25" transform="translate(960 540)"/><path class="cls-31" d="M-315.49-108.37a3.89,3.89,0,0,0,1.35-2.87,3.87,3.87,0,0,0-1.3-2.85,30,30,0,0,1,4.86-2.42,39.76,39.76,0,0,1,6.66-1.45l3.22-.52a6.12,6.12,0,0,1-.48,1.45,15.49,15.49,0,0,1-1,2,16.76,16.76,0,0,1,9.76,3.8,17,17,0,0,1-9.76,3.78,14,14,0,0,1,1,2,7.24,7.24,0,0,1,.48,1.45l-3.22-.52a38.78,38.78,0,0,1-6.66-1.45,35.1,35.1,0,0,1-4.91-2.4" transform="translate(960 540)"/><ellipse class="cls-33" cx="640.36" cy="428.76" rx="5.56" ry="4.45"/><path class="cls-40" d="M-287.8-104.18c.29-1.88-.76-3.52-2.38-3.67a3.43,3.43,0,0,0-3.43,3.11,3,3,0,0,0,2.38,3.67,3.42,3.42,0,0,0,3.43-3.11" transform="translate(960 540)"/><path class="cls-31" d="M-265.27-105a3.41,3.41,0,0,1-.64-2.66,3.84,3.84,0,0,1,1.72-2.31,26.34,26.34,0,0,0-3.77-2.72,33.73,33.73,0,0,0-5.52-2.05l-2.72-.86a6.29,6.29,0,0,0,.16,1.31,11.79,11.79,0,0,0,.48,1.88,15.88,15.88,0,0,0-9.21,2.12,13.63,13.63,0,0,0,7.75,4.49,12.44,12.44,0,0,0-1.25,1.6A7.79,7.79,0,0,0-279-103l2.92-.07a35,35,0,0,0,6.07-.43,32.07,32.07,0,0,0,4.71-1.49" transform="translate(960 540)"/><path class="cls-31" d="M-256.84-126a12.15,12.15,0,0,0-5.92,6.55,4.4,4.4,0,0,0-1.82-1.28,6.88,6.88,0,0,0-2.79-.69s.44,2.1.67,2.85.23,3,.79,5a15.58,15.58,0,0,0,1.64,3.62,5.75,5.75,0,0,1,4-.88,4.94,4.94,0,0,1,3.41,1.94,19.67,19.67,0,0,0,3.09-3c1.39-1.75,2.36-3.84,2.87-4.49s1.84-2.48,1.84-2.48A6.77,6.77,0,0,0-252-119a5.22,5.22,0,0,0-2.25.69,9.76,9.76,0,0,0-2.63-7.76" transform="translate(960 540)"/><path class="cls-31" d="M-258-104a3.77,3.77,0,0,0,1.72-2.34,3.18,3.18,0,0,0-.56-2.65,31,31,0,0,1,4.68-1.49,35,35,0,0,1,6-.43c1,0,3-.07,3-.07a8.45,8.45,0,0,1-.72,1.19,14.43,14.43,0,0,1-1.26,1.62,13.8,13.8,0,0,1,7.76,4.51,16.18,16.18,0,0,1-9.21,2.1,11.12,11.12,0,0,1,.48,1.86,8.85,8.85,0,0,1,.16,1.31l-2.72-.84a34.13,34.13,0,0,1-5.53-2.07A28.37,28.37,0,0,1-258-104" transform="translate(960 540)"/><ellipse class="cls-33" cx="698.83" cy="432.97" rx="5.56" ry="4.45"/><path class="cls-40" d="M-233.06-95.23c.71-1.8.07-3.57-1.46-4s-3.38.72-4.12,2.51-.08,3.56,1.46,4,3.38-.73,4.12-2.52" transform="translate(960 540)"/><path class="cls-31" d="M-212.56-94.35a5,5,0,0,1,1.85-2.29c2-1.47,4.73-1.7,6-.54a2.28,2.28,0,0,1,.46.54s2.81-4.49,6.14-6,9-1.13,9-1.13c0-3.45-3.35-6.24-7.68-6.24a8.73,8.73,0,0,0-6.32,2.4l-.59-2.31a7.39,7.39,0,0,0-5.07,3.93c-1.59,3.35.13,8.21.13,8.21a13.07,13.07,0,0,0-2.15-3.48c-1.31-1.38-4.63-2.9-6.37-3.59a27.67,27.67,0,0,1-3.51-1.7,13.11,13.11,0,0,0-.16,1.31,9.81,9.81,0,0,0,.06,1.8,24.36,24.36,0,0,0-9.81,1,12,12,0,0,0,6.68,5s-1.1.78-2.12,1.62a9.51,9.51,0,0,0-1.1,1.06l3.25.41a49.83,49.83,0,0,0,6.86.48c1.61-.09,3.38-.31,4.45-.48" transform="translate(960 540)"/><path class="cls-33" d="M-204.67-97.18c-1.31-1.16-4-.93-6,.54S-213.32-93-212-91.91s4,.91,6-.54,2.61-3.58,1.31-4.73" transform="translate(960 540)"/><path class="cls-34" d="M-319.69-54.93c-28.32,0-53.94-2.79-73.42-7,19.48-4.26,45.1-6.85,73.42-6.89s54.09,2.63,73.57,6.89c-19.48,4.25-45.23,7-73.57,7Z" transform="translate(960 540)"/><path class="cls-16" d="M-299.42-55.56v-13m-7.73,13.42.1-13.76m-5.73,13.93V-69" transform="translate(960 540)"/><path class="cls-20" d="M-317.57-54.78V-69" transform="translate(960 540)"/><path class="cls-25" d="M-322.15-54.78V-69" transform="translate(960 540)"/><path class="cls-27" d="M-326.45-54.78V-69" transform="translate(960 540)"/><path class="cls-41" d="M-330.73-54.78V-69" transform="translate(960 540)"/><path class="cls-42" d="M-334.54-54.78V-69" transform="translate(960 540)"/><path class="cls-43" d="M-341.81-55.56l-.1-12.89m3.55,13.07v-13.5" transform="translate(960 540)"/><path class="cls-44" d="M-348.52-56.14V-68m3.41,12.23-.11-12.66" transform="translate(960 540)"/><path class="cls-45" d="M-357.5-56.81V-67.26m2.94,10.62v-11m3.05,11.32v-11.4" transform="translate(960 540)"/><path class="cls-46" d="M-360.65-56.89V-67" transform="translate(960 540)"/><path class="cls-47" d="M-363.6-57.41v-9.42" transform="translate(960 540)"/><path class="cls-48" d="M-366.75-57.65v-8.77" transform="translate(960 540)"/><path class="cls-49" d="M-373.2-58.43l-.1-6.95m3.41,7.3V-65.9" transform="translate(960 540)"/><path class="cls-50" d="M-376.5-59v-6.14" transform="translate(960 540)"/><path class="cls-51" d="M-379.55-59.51v-5.1" transform="translate(960 540)"/><path class="cls-52" d="M-382.85-60.2v-4" transform="translate(960 540)"/><path class="cls-53" d="M-386.25-60.52v-3" transform="translate(960 540)"/><path class="cls-54" d="M-389.84-61.21v-1.45" transform="translate(960 540)"/><path class="cls-32" d="M-396.49-61.21c19.84-4.71,46.82-7.61,76.8-7.65s57.11,2.94,76.95,7.65" transform="translate(960 540)"/><path class="cls-33" d="M-405.2-70.93l3.13-3.44,8.62.93-6.88,4.23-4.87-1.72" transform="translate(960 540)"/><path class="cls-40" d="M-386.48-75a2.56,2.56,0,0,1,2.81-2.24A2.57,2.57,0,0,1-380.85-75a2.58,2.58,0,0,1-2.82,2.25A2.57,2.57,0,0,1-386.48-75" transform="translate(960 540)"/><path class="cls-55" d="M-361.88-75.45l-6,.58c-1.56.16-3-.71-3.18-1.94s.9-2.35,2.46-2.48l6.07-.61,6.19-.6a2.73,2.73,0,0,1,3.13,1.94A2.45,2.45,0,0,1-355.71-76l-6.17.6" transform="translate(960 540)"/><path class="cls-40" d="M-344.22-79.16a2.57,2.57,0,0,1,2.82-2.25,2.58,2.58,0,0,1,2.81,2.25,2.59,2.59,0,0,1-2.81,2.24,2.58,2.58,0,0,1-2.82-2.24" transform="translate(960 540)"/><path class="cls-33" d="M-319.62-77.41H-328c-1.53,0-2.84-1-2.84-2.23a2.57,2.57,0,0,1,2.82-2.25h17a2.57,2.57,0,0,1,2.82,2.25c0,1.23-1.31,2.23-2.84,2.23h-8.53" transform="translate(960 540)"/><path class="cls-40" d="M-300.65-79.16a2.58,2.58,0,0,1,2.82-2.25A2.57,2.57,0,0,1-295-79.16a2.58,2.58,0,0,1-2.82,2.24,2.6,2.6,0,0,1-2.82-2.24" transform="translate(960 540)"/><path class="cls-55" d="M-277.35-75.45l6,.58c1.54.16,3-.71,3.18-1.94a2.41,2.41,0,0,0-2.46-2.48l-6.07-.61-6.19-.6A2.71,2.71,0,0,0-286-78.56c-.2,1.23.92,2.36,2.46,2.51l6.17.6" transform="translate(960 540)"/><path class="cls-40" d="M-258.38-75a2.56,2.56,0,0,1,2.82-2.24A2.56,2.56,0,0,1-252.75-75a2.57,2.57,0,0,1-2.81,2.25A2.58,2.58,0,0,1-258.38-75" transform="translate(960 540)"/><path class="cls-33" d="M-234.06-70.93l-3.1-3.44-8.63.93,6.89,4.23,4.84-1.72" transform="translate(960 540)"/></g><g id="shield"><g id="Granada"><path class="cls-56" d="M-318.75,203.75a252.17,252.17,0,0,1-94.59-18.44c-20.55-8.6-34.2-25.92-34.2-45.77V67.61h257.08v71.93c0,19.85-13.62,37.17-34.21,45.77a249.36,249.36,0,0,1-94.08,18.44Z" transform="translate(960 540)"/><path class="cls-57" d="M-312.55,171.83c5.35,1.36,8.06,4.73,8.06,8.66,0,5.14-5.88,9-13.56,9s-13.88-3.89-13.88-9A8.25,8.25,0,0,1-324,172a6,6,0,0,0-.62-1.08c-.56-.5-1.64-1.43-1.64-1.43a9,9,0,0,1,3.2.05,7.11,7.11,0,0,1,2,1,7.73,7.73,0,0,1,1.33-1.64,7,7,0,0,1,1.8-1.14,8.5,8.5,0,0,1,1.56,1.38,7.49,7.49,0,0,1,.64,1.27,9.34,9.34,0,0,1,2-1.06,20.78,20.78,0,0,1,2.15-.56s-.33,1-.56,1.49a7.19,7.19,0,0,0-.36,1.56" transform="translate(960 540)"/><path class="cls-58" d="M-319.18,195.09s-10.19-5.79-14.59-6.57c-5.66-1-12-.19-14.75-.32.08.07,3.3,2,4.71,3.2a28.55,28.55,0,0,0,8.78,4.12,36.58,36.58,0,0,0,15.85-.43" transform="translate(960 540)"/><path class="cls-58" d="M-316.26,195.61s6.5-5.75,13.34-6.52a43.59,43.59,0,0,1,16.48,1.25c.08,0-2.58,1.06-4,1.88a19.85,19.85,0,0,1-10.6,3.43c-5.58.07-11.73-.49-12.72-.36l-2.51.32" transform="translate(960 540)"/><path class="cls-59" d="M-318.23,188.52a10.21,10.21,0,0,1-4.15-8,10.17,10.17,0,0,1,4.17-8,10.23,10.23,0,0,1,4.12,8,10.2,10.2,0,0,1-4.14,8" transform="translate(960 540)"/><path class="cls-58" d="M-320.82,200.25a19.71,19.71,0,0,0,1.72-6.11,18.58,18.58,0,0,0-.39-4.69h2.05a15.09,15.09,0,0,1,1,4.69,40.22,40.22,0,0,1-.46,5.12,10.93,10.93,0,0,0-1.87.37c-.49.19-2.05.62-2.05.62" transform="translate(960 540)"/></g><g id="Aragon"><path class="cls-59" d="M-319.18,139.47c0,28.43-28.57,51.45-64.13,51.45s-64.38-23-64.38-51.45v-72h128.51v72" transform="translate(960 540)"/><path class="cls-60" d="M-447.92,138.5c.38,15.16,7.55,26.46,14.67,33.85V65.49h-14.49l-.18,73Z" transform="translate(960 540)"/><path class="cls-60" d="M-419.64,181.94c4,1.79,9.53,4.79,15.44,6l-.38-123h-15.06Z" transform="translate(960 540)"/><path class="cls-60" d="M-391,190.62a82.55,82.55,0,0,0,15,0V64.89h-15Z" transform="translate(960 540)"/><path class="cls-60" d="M-362.7,187.92a55.74,55.74,0,0,0,15.44-5.68V64.89h-15.06l-.38,123Z" transform="translate(960 540)"/><path class="cls-60" d="M-333.29,171.16c6.28-4.71,12.16-15.38,14.31-27.56l.36-78.71h-15Z" transform="translate(960 540)"/></g><g id="Navarre"><path class="cls-59" d="M-190.34,67.44v72c0,28.43-28.87,51.45-64.43,51.45s-64.41-23-64.41-51.45v-72h128.84" transform="translate(960 540)"/><path id="chains_half" data-name="chains half" class="cls-61" d="M-261.86,121.26a6.06,6.06,0,0,1,.48-.86l-10.9-10.24-4.28,1.56-7.83-7.33,2.56-3.15L-295.5,88.3c-.18,0-.51,0-.69.09l.07,8.68,4.48,1.08v9.63l-4.48,1-.07,8.81a6.32,6.32,0,0,1,4.45,3.61l8.22,0,1.31-3.6h12.08l1.28,3.6Zm-17.87-40v3.48h7.06V81.3Zm-18.69,44a2.72,2.72,0,0,0,3-2.37,2.74,2.74,0,0,0-3-2.4,2.74,2.74,0,0,0-3,2.4C-301.41,124.24-300.08,125.3-298.42,125.3Zm40.94-21-4.51-1V93.61l4.51-1.08,0-4.14a6.48,6.48,0,0,1-4.58-3.61h-6.86l-1.31,3.61h-12.06l-1.3-3.61h-7.91a6.34,6.34,0,0,1-.75,1.32L-278.5,99l4.27-1.53,7.84,7.34-2.56,3.13,10.7,10c.23-.09.46-.18.71-.26Zm-18.56-3-3.31,2.25,4.53,4.28,3.31-2.27Zm20.49,78.16c-3.18-.14-5.78-1.94-6.44-4.35a53.39,53.39,0,0,1-12.11-2.81l2.15-3.09a47.06,47.06,0,0,0,10.45,2.4,6.46,6.46,0,0,1,4-3l0-12.14-4.51-1.06v-9.63l4.51-1V128.2a2.78,2.78,0,0,1-.52-.2l-10.18,9.55,2.56,3.11-7.84,7.34-4.27-1.53-8.45,7.93a4.6,4.6,0,0,1-.28,6.15,38.53,38.53,0,0,0,8.29,5.94l-2.15,3.11a44,44,0,0,1-9.7-6.95,8.31,8.31,0,0,1-6.66-1.08c-2.94-2-3.3-5.53-.77-7.86l.36-.35a30.4,30.4,0,0,1-3.38-10.8l4.38,0a26.58,26.58,0,0,0,2.79,9.22,9.59,9.59,0,0,1,3.74.35l8.5-8-2.56-3.13,7.83-7.34,4.28,1.55,10.21-9.57a4.48,4.48,0,0,1-.54-1l-7.06,0-1.28,3.61h-12.08l-1.31-3.61-8.29,0a6.49,6.49,0,0,1-4.33,3.5l0,8.72-4.37,0v-8.66c-2.82-.71-4.89-2.83-4.89-5.33s2.1-4.65,4.91-5.36l0-8.75-4.51-1V98.15l4.51-1.08V88.32c-2.77-.75-4.71-2.85-4.71-5.29,0-3.09,3.12-5.57,7-5.57,3.12,0,5.76,1.6,6.68,3.84h7.91l1.3-3.6h12.06l1.31,3.6h6.86c.91-2.22,3.49-3.81,6.55-3.84l.18,18.08h-2.18v5.63h2.17l-.06,46.64h-2v5.64h2Zm-15.14-39.54-3.31-2.24-4.55,4.27,3.3,2.25Zm-25.5-39.83h-4.33l0,5.64h4.35Zm23.45,24.65v-3.46H-280v3.46Zm-27.14,20.93-4.5-.84-.64-9.62,4.48-1.25v5.53a29.39,29.39,0,0,0,.66,6.18Zm3.74-11.92,4.48.88s.23,6.2.13,4.8c-.1-1.6.48,4.83.48,4.83l-4.5,1.26a26.27,26.27,0,0,1-.62-6Zm27.67,36.56,1-3.67a39.54,39.54,0,0,1-10.67-4.51l-3.23,2.4a45.56,45.56,0,0,0,12.9,5.78Zm-2.17,3.11L-274,176a53.5,53.5,0,0,1-10.55-4.56l1-3.82a50.11,50.11,0,0,0,12.9,5.74Z" transform="translate(960 540)"/><path id="chains_half-2" data-name="chains half" class="cls-61" d="M-249,121.26a5.21,5.21,0,0,0-.48-.86l10.9-10.24,4.28,1.56,7.83-7.33-2.56-3.15L-215.4,88.3c.18,0,.51,0,.69.09l-.07,8.68-4.48,1.08v9.63l4.48,1,.07,8.81a6.32,6.32,0,0,0-4.45,3.61l-8.22,0-1.3-3.6h-12.09l-1.28,3.6Zm17.87-40v3.48h-7.06V81.3Zm18.69,44a2.72,2.72,0,0,1-3-2.37,2.74,2.74,0,0,1,3-2.4,2.75,2.75,0,0,1,3,2.4C-209.48,124.24-210.82,125.3-212.48,125.3Zm-40.93-21,4.5-1V93.61l-4.5-1.08,0-4.14a6.48,6.48,0,0,0,4.58-3.61h6.86l1.31,3.61h12.06l1.3-3.61h7.91a6.34,6.34,0,0,0,.75,1.32L-232.4,99l-4.27-1.53-7.84,7.34,2.56,3.13-10.7,10c-.23-.09-.46-.18-.71-.26Zm18.56-3,3.3,2.25-4.53,4.28-3.31-2.27Zm-20.5,78.16c3.18-.14,5.78-1.94,6.44-4.35a53.39,53.39,0,0,0,12.11-2.81l-2.15-3.09a47.06,47.06,0,0,1-10.45,2.4,6.46,6.46,0,0,0-4-3l0-12.14,4.51-1.06v-9.63l-4.51-1V128.2a2.78,2.78,0,0,0,.52-.2l10.19,9.55-2.56,3.11,7.83,7.34,4.27-1.53,8.45,7.93a4.6,4.6,0,0,0,.28,6.15,38.53,38.53,0,0,1-8.29,5.94l2.15,3.11a44,44,0,0,0,9.7-6.95,8.31,8.31,0,0,0,6.66-1.08c2.94-2,3.3-5.53.77-7.86l-.36-.35a30.4,30.4,0,0,0,3.38-10.8l-4.38,0a26.58,26.58,0,0,1-2.79,9.22,9.59,9.59,0,0,0-3.74.35l-8.5-8,2.56-3.13-7.83-7.34-4.28,1.55-10.21-9.57a4.48,4.48,0,0,0,.54-1l7.06,0,1.28,3.61h12.09l1.3-3.61,8.3,0a6.45,6.45,0,0,0,4.32,3.5l0,8.72,4.37,0v-8.66c2.82-.71,4.89-2.83,4.89-5.33s-2.09-4.65-4.91-5.36l0-8.75,4.51-1V98.15l-4.51-1.08V88.32c2.77-.75,4.71-2.85,4.71-5.29,0-3.09-3.12-5.57-7-5.57-3.13,0-5.76,1.6-6.69,3.84h-7.91l-1.3-3.6h-12.06l-1.31,3.6h-6.86c-.91-2.22-3.48-3.81-6.55-3.84l-.18,18.08h2.18v5.63h-2.17l.06,46.64h2v5.64h-2Zm15.14-39.54,3.31-2.24,4.55,4.27-3.3,2.25Zm25.5-39.83h4.33l0,5.64h-4.35Zm-23.45,24.65v-3.46h7.3v3.46ZM-211,145.65l4.5-.84.64-9.62-4.48-1.25v5.53a29.39,29.39,0,0,1-.66,6.18Zm-3.74-11.92-4.48.88s-.23,6.2-.13,4.8c.11-1.6-.48,4.83-.48,4.83l4.5,1.26a26.27,26.27,0,0,0,.62-6Zm-27.67,36.56-1-3.67a39.54,39.54,0,0,0,10.67-4.51l3.23,2.4a45.56,45.56,0,0,1-12.9,5.78Zm2.17,3.11,3.33,2.64a53.5,53.5,0,0,0,10.55-4.56l-1-3.82a50.18,50.18,0,0,1-12.91,5.74Z" transform="translate(960 540)"/><path class="cls-62" d="M-262.17,123c0-3.11,3.15-5.62,7-5.62s7,2.51,7,5.62-3.12,5.57-7,5.57-7-2.48-7-5.57" transform="translate(960 540)"/></g><g id="Castile"><path class="cls-59" d="M-447.69,67.5h128.46V-52.86H-447.69Z" transform="translate(960 540)"/><path class="cls-63" d="M-403.61-25H-406v-2h-4.15v8H-406v5.51h-8.89v16h4.74V34.37h-9.47V50.85h72.75V34.37h-9.45V2.42h4.74v-16h-8.88V-19h4.14v-8h-4.14v2h-2.38v-2h-4.12v2h-3v-2H-374v8h4.15v5.51h-8.86V-31H-374v-8h-4.71v2h-2.38v-2h-4.15v2h-2.36v-2h-4.73v8h4.73v17.48h-8.88V-19h4.15v-8h-4.15v2h-2.35v-2h-4.74v2Zm-16,75.88h72.75m-72.75-4h72.75m-72.75-4h72.75m-72.75-4h72.75m-72.75-4.49h72.75m-63.28-3.5h53.83m-53.83-4h53.83m-53.83-4.49h53.83m-53.83-4h53.83m-53.83-4h53.83m-53.83-4h53.83m-53.83-4h53.83m-58.57-4h63.31m-63.31-4h63.31m-63.31-4h63.31m-63.31-4h63.31m-54.42-4h45.54m-27.22-4h8.89m-8.89-4h8.89m-8.89-4h8.89m-8.89-4h8.89m-13.62-5H-374m-31.92,17h9.44m-13.59-5h17.74m-17.74,73.38v-4m0-4v-4m-4.74,4v4m8.89,0v-4m4.71,8v-4m0-4v-4m0-4.49v-3.5m0-4V22.38M-406,38.86V34.37m-8.89,4.49V34.37m18.33,0v4.49m4.15-4.49v-3.5m-13.59-4v4m9.44-4v4m8.88-4v4m-4.73-4V22.38m4.73-4v4m0-12v4m-4.73-8v4m4.73-8v4m-8.88-4v4m-9.44-4v4m-4.15-8v4m8.86-4v4m8.88-4v4m4.73-8v4m-8.88-4v4m-9.44-4v4m-4.15-8v4m17.74-4v4m-8.88-12v4m40.83-4h-9.47m13.61-5H-374m17.76,73.38v-4m0-4v-4m4.74,4v4m-8.88,0v-4m-4.74,8v-4m0-4v-4m0-4.49v-3.5m0-4V22.38m4.74,16.48V34.37m8.88,4.49V34.37m-18.35,0v4.49M-374,34.37v-3.5m13.62-4v4m-9.47-4v4m-8.86-4v4m4.71-4V22.38m-4.71-4v4m0-12v4m4.71-8v4m-4.71-8v4m8.86-4v4m9.47-4v4m4.14-8v4m-8.88-4v4m-8.88-4v4m-4.71-8v4m8.86-4v4m9.47-4v4m4.14-8v4m-17.76-4v4m8.88-12v4m-18.33,40.41V22.38m0-12v-4m0,12v-4m0-12v-4m0-4v-4m0-8v-4m0-4v-4M-406-19h9.44m8.88-12h8.89m8.86,12h9.47" transform="translate(960 540)"/><path class="cls-63" d="M-371.07,50.85V40.35c0-2-1.18-8-12.42-8-10.65,0-11.83,6-11.83,8v10.5Z" transform="translate(960 540)"/><path class="cls-63" d="M-391.19,40.85l-5.92-.5c0-2,.59-5,2.38-6l5.33,3.49C-390,38.36-391.19,39.85-391.19,40.85Z" transform="translate(960 540)"/><path class="cls-63" d="M-381.13,35.86l3-4.5a16.65,16.65,0,0,0-5.33-1,16.25,16.25,0,0,0-4.73,1l2.94,4.5Z" transform="translate(960 540)"/><path class="cls-63" d="M-375.22,40.85l5.91-.5c0-2-.58-5-2.35-6L-377,37.86A5.42,5.42,0,0,1-375.22,40.85Z" transform="translate(960 540)"/><path class="cls-63" d="M-392.37,23.39v-11c0-3-2.36-5.49-6.5-5.49s-6.51,2.51-6.51,5.49v11Z" transform="translate(960 540)"/><path class="cls-63" d="M-374,23.39v-11c0-3,2.38-5.49,6.53-5.49s6.5,2.51,6.5,5.49v11Z" transform="translate(960 540)"/><path class="cls-63" d="M-396.52-3.56l.59-10h-11.24l1.21,10Z" transform="translate(960 540)"/><path class="cls-63" d="M-378.75-3.56l1.18-10h-11.24l.59,10Z" transform="translate(960 540)"/><path class="cls-63" d="M-369.89-3.56l-1.18-10h11.83l-1.18,10Z" transform="translate(960 540)"/><path class="cls-64" d="M-375.22,50.85v-9c0-1.51-1.18-6-8.27-6-6.5,0-7.7,4.49-7.7,6v9Z" transform="translate(960 540)"/><path class="cls-64" d="M-393.55,22.38V12.9a5,5,0,0,0-5.32-5,5,5,0,0,0-5.33,5v9.48Z" transform="translate(960 540)"/><path class="cls-64" d="M-372.84,22.38V12.9a5,5,0,0,1,5.33-5,5,5,0,0,1,5.32,5v9.48Z" transform="translate(960 540)"/></g><g id="Leon"><path class="cls-56" d="M-319.28,67.5h128.82V-52.86H-319.28Z" transform="translate(960 540)"/><path class="cls-65" d="M-253.62-23.2l.13-1.34.23-.73a28.36,28.36,0,0,1-6.3-.24,16.94,16.94,0,0,1-6.14-2.7c-2-1.47-2.82-2.38-4.28-2.55a11.45,11.45,0,0,0-6.14.87,11.81,11.81,0,0,1,4.56,2.83,12.56,12.56,0,0,0,5,3.3c1.51.39,6.81.11,8.24.15s4.71.41,4.71.41Z" transform="translate(960 540)"/><path class="cls-66" d="M-234.34-28.08s0,1.56.2,3-.56,2.68-.28,3.48a10.06,10.06,0,0,0,.77,2,6.89,6.89,0,0,1,.54,2l-1.9-1.17c-.89-.58-1.53-.95-1.53-.95s.18,1.56.25,2.23A5.6,5.6,0,0,0-235-14.75a14.35,14.35,0,0,1,2.69,2.87,8.88,8.88,0,0,1,.35,3.11,5.94,5.94,0,0,0-2.22-1.92c-1-.3-3.23-1.34-3.23-1.34s2,1.71,2,3.35a10,10,0,0,1-.82,3.45,11,11,0,0,0-2.12-2.42,26.36,26.36,0,0,0-2.89-1.94,12,12,0,0,1,1.33,4.21c0,1.71-.39,5.34-.39,5.34a9.84,9.84,0,0,0-2-2.08,21.66,21.66,0,0,1-2.61-1.68,7.09,7.09,0,0,1,1.38,2.5c.18,1.11.82,5.08,4.92,10.13,2.4,3,6.12,8.15,14.08,6.44s5-10.73,3.33-14.95-2.51-8.87-2.41-10.52,1.48-6.41,1.31-7.32a15.42,15.42,0,0,1,.35-7.08,34.43,34.43,0,0,1,2.44-5.19,11.92,11.92,0,0,0,1.17-2.89,23.41,23.41,0,0,0,.18-3s1.49,2.29,1.87,3.11a12.8,12.8,0,0,1,.36,3.24,5.06,5.06,0,0,1,2.51-3.61c2.23-1.18,4.81-2.44,5.45-3.11a5,5,0,0,0,.85-1.1s-.21,4.15-1.59,5.77c-.92,1.06-4.53,4.51-4.53,4.51a15.06,15.06,0,0,1,3.15-.65,16.6,16.6,0,0,1,2.22,0,18.17,18.17,0,0,0-3.61,3.55c-2,2.5-1.2,2.72-2.68,4.79s-2.69,2.16-4.56,3.42c-2.77,1.87-1.28,9.37-.92,10.49s5.19,10.28,5.3,12.51.53,7.19-4.1,10.37c-3,2.05-7.86,2.07-9,2.65a6.87,6.87,0,0,0-3.31,6.29c0,3.87,1.64,4.45,3,5.42s3,.43,3.32,1.19a4.39,4.39,0,0,0,1.13,1.62,1.66,1.66,0,0,1,.74,1.77c-.2.82-2.33,2.66-3.07,4a29,29,0,0,0-2.23,5.33c0,.52-.17,2.14.47,3,0,0,2.33,2.29.74,2.72-1,.3-2-.54-2.49-.43-1.38.3-2.12,1-2.5,1-.93-.15-.93-.54-1-1.64s0-1.55-.43-1.55c-.57,0-.85.38-.95,1s-.1,1.92-.74,1.92-1.56-1-2.13-1.19-2.12-.43-2.22-1,.92-1.84,1.94-2.08,2-.65,1.31-1.1a1.63,1.63,0,0,0-1.95,0c-.64.45-2,.09-2-.58a6.06,6.06,0,0,0,.18-1.86c-.07-.37-1.2-1.1.26-1.77s2.15.58,3.64.37A3.73,3.73,0,0,0-233,41.19a2.63,2.63,0,0,0-.56-3.24c-1-1-2-1.12-2.41-1.73a18.33,18.33,0,0,1-.92-2,15.11,15.11,0,0,1,.1,3,7.52,7.52,0,0,0-.1,1.92s-1-1-1.84-1.71a10.34,10.34,0,0,1-1.67-3s-.07,2.08-.07,2.9,1.1,1.55.74,1.85-2.13-1.55-2.61-1.85a9.4,9.4,0,0,1-2.59-2.29,15.22,15.22,0,0,1-1.3-3.05,8,8,0,0,1-.18-3.41c.46-.87,1.2-2.44,1.2-2.44h-3.61c-1.95,0-3.33-.5-4.07.6s-.38,3.33.54,6.22,1.48,4.28,1.23,4.8A7.4,7.4,0,0,1-253,39.7a4.12,4.12,0,0,1-2.33-.06,7.72,7.72,0,0,0-3.23-.59,25.84,25.84,0,0,1-3.5-.06c-.67-.15-2.26-.82-3-.67s-2,.69-1.66,1.55c.56,1.32-.54,1.62-1.31,1.56a22.92,22.92,0,0,1-2.3-.52c-.92-.24-2.31,0-2.13-.91s.57-1,1-1.59.64-1.13.1-1.17a2.74,2.74,0,0,0-1.79.24c-.51.34-1.31,1.1-2,.82s-1.17-.93-1.17-2.34-1.75-2.59-.13-2.52,3.61,1,4,.28.16-1.1-.71-1.69-2-.93-.8-1.66,1.44-.76,1.9-1.17,1.05-1.7,1.87-1.38c1.58.65.05,1.58,1.66,3.07s2.59,2,5.28,1.79,3.4-.52,3.4-1.17a17.06,17.06,0,0,0-.31-2.24,11.72,11.72,0,0,1,.39-2.14,5.4,5.4,0,0,0-1.62,1.27c-.33.63-1.07,1.73-1.07,1.73a10.09,10.09,0,0,1-.21-2.35c.06-.63.31-1.71.29-1.92a16.24,16.24,0,0,0-.59-2,10.81,10.81,0,0,1-.72,2,9.12,9.12,0,0,0-.41,2.31,3.4,3.4,0,0,1-1.23-3.35c.33-1.62-.31-3.76.28-4.45s1.92-3.54,5.28-3.65,5.91.11,7.09.06,5.27-.71,5.27-.71-7.6-3.28-9.32-4.28A23.7,23.7,0,0,1-262,7.13a16.38,16.38,0,0,1-1.66-3.41,7.54,7.54,0,0,0-2.61.62,13.32,13.32,0,0,0-3.18,2.14,24.06,24.06,0,0,0-1.86,2.27s.2-2,.2-2.66-.15-1.86-.15-1.86S-272.13,7-273.87,8s-3.76,2.48-3.76,2.48.2-1.53.2-1.9.44-2.14.44-2.14a5.53,5.53,0,0,1-3.1,1.86c-1.89.28-4.63.24-4.86,1.21s.51,2.31.07,3a4,4,0,0,1-1.38,1.17,4.81,4.81,0,0,0-2-.82,4.24,4.24,0,0,0-1.82.34s-.79-.86-.49-1.45,1.72-1.42,1.39-1.79-1.54.13-2.26.41-2.25.58-2.1-.41.52-1.55.13-2.25-.13-1.14.46-1.31,2.87,0,3.1-.41-.56-1-2.1-1.32-2.25-1.06-1.46-1.69A4.56,4.56,0,0,0-292,1.64c.36-.58.52-1.64,1.9-1.1s1.07,1.79,2.53,2.18a12.68,12.68,0,0,0,5.56-.52c.72-.34,3.05-1.79,3.84-2.13s4.12-2.42,4.12-2.42S-276-3.5-276.79-4.08a20.93,20.93,0,0,0-2.66-2.27,26.31,26.31,0,0,0-4.92-1.38,33.49,33.49,0,0,1-4.4-1,10.06,10.06,0,0,0,2-.76c.49-.34,1.64-1.2,2.23-1.14l.72,0a36,36,0,0,1-3.77-.28,21.26,21.26,0,0,0-3.25-1.16,19.41,19.41,0,0,0-2.15.23,13.73,13.73,0,0,1,3.54-1.27,17.49,17.49,0,0,1,2.81-.17s-2.46-.59-3-1.26-1.16-1.72-1.59-2.2-.72-1.21-1.51-1.27-2.18.82-3,.75a1.44,1.44,0,0,1-1.46-1.45c-.05-1,0-.64-.26-1.16s-1.46-1.73-.38-2,3.4.17,3.63-.17-1.22-1.41-2.17-1.8-2.46-1.1-1.67-1.68a11.92,11.92,0,0,0,2-1.32c.43-.52.94-2,1.89-1.51s2.23,2.72,3,2.55.77-1.79.64-2.49,0-1.9.72-1.79,1.3.93,2.46,1,2.89-.24,2.73.45a5.07,5.07,0,0,1-1.58,2.29,3.05,3.05,0,0,0-.64,3.24,8.94,8.94,0,0,0,3,3.2c1.15.62,3.33,1.1,4.71,1.83s4.55,2.9,5.63,3.13a16.17,16.17,0,0,1,2.18.69,9.18,9.18,0,0,1,2.89-.45c1.66,0,5.48.22,6.94-.3s3.32-1.38,2.76-2.49-3.76-2.07-3.48-2.93,1.46-.93,3.4-1,4.61.31,5.12-2,.67-3.63-2.07-4.14-4.79-.59-5.3-2.25-1-2.1-.43-2.55,1.58-.69,3.61-.8,4.35-.13,5-.54.77-1.49,1.56-2a19,19,0,0,1,3.92-.87,53.88,53.88,0,0,1,7.17,3.7,36.79,36.79,0,0,1,5.89,4.81" transform="translate(960 540)"/><path class="cls-32" d="M-271.36-14.28a6.43,6.43,0,0,0-2.82,1.45,3.61,3.61,0,0,0-.87,2.31,5.46,5.46,0,0,1,4-.71c2.22.52,2.45.71,3.4.65a24,24,0,0,0,3.25-.76s-1.89,1.86-1.66,3.13a13.35,13.35,0,0,1,.43,2.49,9.09,9.09,0,0,1-1.53,3.47A10.49,10.49,0,0,1-264.47-3,12.9,12.9,0,0,0-260-4.75,13.62,13.62,0,0,0-257.69-7a7.37,7.37,0,0,0,0,3.07,15.25,15.25,0,0,1,.59,3.61,13.46,13.46,0,0,1,2.18-1.34,7,7,0,0,0,2.3-1.51,10.82,10.82,0,0,0,.82-2.29,7.86,7.86,0,0,0,1,2.89A22.23,22.23,0,0,1-249,1.23a9.48,9.48,0,0,1,1.53-2.61c.8-.76,1.75-1.73,1.8-2.31a8,8,0,0,0-.21-1.84l1,1.84M-274.1-2.38a8.78,8.78,0,0,1,2.38-2.37c1.18-.56,2.77-1.6,3.2-1.73s2.31-1,2.31-1m2.53,11.16s2.79-1.18,3.61-1.62a9.87,9.87,0,0,0,3-2.42" transform="translate(960 540)"/><path class="cls-7" d="M-236.62-19.66a16.9,16.9,0,0,1-1.08-1.4,9.87,9.87,0,0,1-.58-1" transform="translate(960 540)"/><path class="cls-32" d="M-247.48,16s5.23,2.72,5.07,5-2.89,5.2-2.89,5.2" transform="translate(960 540)"/><path class="cls-67" d="M-261-29.72s-.44-1-.51-1.34a2.88,2.88,0,0,0-.31-.63s2.25,0,2.17.59-.71.58-.87.8a3.28,3.28,0,0,1-.48.58Z" transform="translate(960 540)"/><path class="cls-68" d="M-250.73-32.72l-.15-.93a7.28,7.28,0,0,1,2.89.56,6.33,6.33,0,0,1,2.33,2.27c-.25.19-1.38-.59-2.17-.8a7.3,7.3,0,0,1-1.16.11c-.58,0-.87-.24-.94-.46a1.24,1.24,0,0,1,.07-.65Z" transform="translate(960 540)"/><path class="cls-67" d="M-260.92-21.3l.85-1.14.87,1.06-1.72.08" transform="translate(960 540)"/><path class="cls-67" d="M-258.84-21.34l1-1.15,1.1,1-2.12.11" transform="translate(960 540)"/><path class="cls-67" d="M-259.76-28.45l2.1.63-1.9.82-.2-1.45" transform="translate(960 540)"/><path class="cls-67" d="M-257.23-27.86l1.87.38-1.51,1-.36-1.38" transform="translate(960 540)"/><path class="cls-65" d="M-289.59-30.07a7.29,7.29,0,0,0,2.18.87c1,.1,1.94.1,2.1.1a3.16,3.16,0,0,0,.28-2c-.51-2.59-3.33-3.18-3.33-3.18s.85,1.58.44,2.32a7.27,7.27,0,0,1-1.67,1.85Z" transform="translate(960 540)"/><path class="cls-65" d="M-295.45-27.82a3.73,3.73,0,0,0-3.4-1.45,7,7,0,0,0-3.84,1.75,11.92,11.92,0,0,1,3.2.28,3.07,3.07,0,0,1,1.22,1.86,8.73,8.73,0,0,0,1.82-1.17c.41-.45,1-1.27,1-1.27Z" transform="translate(960 540)"/><path class="cls-65" d="M-298.27-21.06a6.18,6.18,0,0,0-3,1.27,4.21,4.21,0,0,0-.92,3,4.57,4.57,0,0,1,2.43-1.17,19.75,19.75,0,0,1,3,.35,6.55,6.55,0,0,1-.57-1.73,5.37,5.37,0,0,0-.87-1.75Z" transform="translate(960 540)"/><path class="cls-65" d="M-291.69.8a3.75,3.75,0,0,0-3-.69,5.34,5.34,0,0,0-3.12,2.09A8.09,8.09,0,0,1-295.22,2a3.11,3.11,0,0,1,1.59,1,8.27,8.27,0,0,0,1.15-1A14.54,14.54,0,0,0-291.69.8Z" transform="translate(960 540)"/><path class="cls-65" d="M-293.86,7.21a4.74,4.74,0,0,0-3,.72,3.75,3.75,0,0,0-1.44,2.7,4.2,4.2,0,0,1,2.33-.8,10.94,10.94,0,0,1,2.23.58s.21-1.1.28-1.38a2.67,2.67,0,0,0-.43-1.82Z" transform="translate(960 540)"/><path class="cls-65" d="M-290.15,13.13a4.14,4.14,0,0,0,.84,2.77,5.15,5.15,0,0,0,2.9,1.27,8.26,8.26,0,0,1-.72-1.73c-.15-.86.87-1.62.87-1.62a3.48,3.48,0,0,0-1.87-.82,19.64,19.64,0,0,0-2,.13Z" transform="translate(960 540)"/><path class="cls-65" d="M-271.36,28.34a4.61,4.61,0,0,0-3.1-1.34,7.82,7.82,0,0,0-3.71,1.49s2.25-.15,2.84.48a16.09,16.09,0,0,1,1.15,1.44,12.06,12.06,0,0,0,1.46-.75,10.9,10.9,0,0,0,1.36-1.32Z" transform="translate(960 540)"/><path class="cls-65" d="M-276.92,34.41s-2.38-.3-3.55.75a4.16,4.16,0,0,0-1.08,2.94,4.49,4.49,0,0,1,2.74-1.21,11.49,11.49,0,0,1,2.77.69s-.24-1.14-.39-1.68-.49-1.49-.49-1.49Z" transform="translate(960 540)"/><path class="cls-65" d="M-271.77,40.82s-1.18,1.39-.31,2.49a6.12,6.12,0,0,0,2.69,1.62,2,2,0,0,1-.36-1.73c.23-.73,1.72-1.73,1.72-1.73l-3.74-.65Z" transform="translate(960 540)"/><path class="cls-65" d="M-240,43.44a6.41,6.41,0,0,0-3.25.17c-1.15.56-2.1,3-2.1,3s1.9-1.34,3.28-1.16a8.93,8.93,0,0,1,2.38.64,4.77,4.77,0,0,0,.05-1.68,4.24,4.24,0,0,0-.36-1Z" transform="translate(960 540)"/><path class="cls-65" d="M-239,49.9s-1.59,1.38-1,2.54a15.18,15.18,0,0,0,1.59,2.38s-.05-1.73.59-2.2a6.22,6.22,0,0,1,2.69-.8A11.88,11.88,0,0,0-237,50.65C-237.41,50.54-239,49.9-239,49.9Z" transform="translate(960 540)"/><path class="cls-65" d="M-231,51.93a2.25,2.25,0,0,0,.72,2.76,6.12,6.12,0,0,0,2.84,1.23s-1.18-1.75-.82-2.65a3.55,3.55,0,0,1,1.38-1.56,12.8,12.8,0,0,0-2.17-.47c-.29,0-1.95.69-1.95.69Z" transform="translate(960 540)"/><path class="cls-4" d="M-235.83-37.35l-.74.05a3.36,3.36,0,0,1-.67.75,1.82,1.82,0,0,1-2.2.15,1,1,0,0,1-.36-.88,1.48,1.48,0,0,1-1.3,0,1.09,1.09,0,0,1-.36-1.71,1.21,1.21,0,0,1,.28-.39l0-.69-.89.17-.26.41a1.54,1.54,0,0,1-1.79.37,1.09,1.09,0,0,1-.34-.58,1.06,1.06,0,0,1-.43.24c-1.38.28-1.92-2.27-2-2.92l-.44.54a8,8,0,0,1,.21,2.81,13.55,13.55,0,0,1-.75,2.57,26.23,26.23,0,0,1,7.61,3.56,22.56,22.56,0,0,1,6,5.23,21,21,0,0,1,3-1.1,16.7,16.7,0,0,1,3.48-.43l.56-.46c-.82.11-4,.22-4-.93A.6.6,0,0,1-231-31a1.87,1.87,0,0,1-.77-.13c-.46-.28-.46-.92.05-1.49l.46-.28,0-.73-.87.11c-.07.08-.28.19-.38.28a1.85,1.85,0,0,1-2.2.06.8.8,0,0,1-.28-1,1.72,1.72,0,0,1-1.15-.11,1.07,1.07,0,0,1-.29-1.73,3.14,3.14,0,0,1,.8-.69l-.18-.65Z" transform="translate(960 540)"/><path class="cls-68" d="M-241.59-35.86a.46.46,0,0,1,.59,0c.21.13.26.35.16.46a.51.51,0,0,1-.62,0c-.18-.11-.26-.33-.13-.44Z" transform="translate(960 540)"/><path class="cls-68" d="M-239.16-34.15l-.84-.54a.24.24,0,0,1-.1-.35.47.47,0,0,1,.46,0l.84.57.85.54c.13.08.2.26.1.34a.42.42,0,0,1-.46,0l-.85-.56" transform="translate(960 540)"/><path class="cls-68" d="M-243.61-36.72l-.67-.32c-.17-.09-.25-.26-.17-.37a.34.34,0,0,1,.43,0l.67.34.66.33a.27.27,0,0,1,.18.34.34.34,0,0,1-.43,0l-.67-.32" transform="translate(960 540)"/><path class="cls-68" d="M-246.27-38.25a.52.52,0,0,1,.61,0c.21.15.26.34.13.47a.53.53,0,0,1-.59,0c-.2-.13-.25-.32-.15-.45Z" transform="translate(960 540)"/><path class="cls-68" d="M-236.47-32.57c.13-.11.08-.31-.13-.46a.52.52,0,0,0-.61,0c-.1.11,0,.33.15.46a.49.49,0,0,0,.59,0Z" transform="translate(960 540)"/><path class="cls-68" d="M-235-31.15l.57.46a.41.41,0,0,0,.46.06.21.21,0,0,0,0-.34l-.54-.46-.56-.45a.43.43,0,0,0-.46-.07c-.13.07-.1.24,0,.35l.54.45" transform="translate(960 540)"/><path class="cls-68" d="M-232.58-29.4c.13-.13.08-.32-.12-.45a.47.47,0,0,0-.59,0c-.13.13-.08.32.13.47A.51.51,0,0,0-232.58-29.4Z" transform="translate(960 540)"/><path class="cls-4" d="M-239.62-42.42l-1.51,0-.28,1.88.16.3.38,0,2-1.1-.7-1.08" transform="translate(960 540)"/><path class="cls-4" d="M-239.62-42.42l-1.51,0-.28,1.88.16.3.38,0,2-1.1-.7-1.08" transform="translate(960 540)"/><path class="cls-4" d="M-243.71-41.39l0,1.17,2.35.26.39-.15-.06-.33L-242.43-42l-1.28.58" transform="translate(960 540)"/><path class="cls-4" d="M-238.85-39l-1.25.58L-241.48-40l0-.33.36-.13,2.38.24-.08,1.17" transform="translate(960 540)"/><path class="cls-4" d="M-241.89-40.5a.8.8,0,0,1,1-.19.51.51,0,0,1,.26.79.82.82,0,0,1-1,.2A.51.51,0,0,1-241.89-40.5Z" transform="translate(960 540)"/><path class="cls-4" d="M-247.4-42.44s-.33-1-.66-1.54a3.76,3.76,0,0,0-1-.93,2.47,2.47,0,0,1,2.22.2c1,.67-.07,1.88-.07,1.88a1.31,1.31,0,0,1-.49.39Z" transform="translate(960 540)"/><path class="cls-4" d="M-244.76-41.77l-1.08.79-1.74-1.29.16-.17.07-.33,2.36-.15.23,1.15" transform="translate(960 540)"/><path class="cls-4" d="M-247.71-42.57A.67.67,0,0,1-247-43a.5.5,0,0,1,.26.72.68.68,0,0,1-.75.43A.48.48,0,0,1-247.71-42.57Z" transform="translate(960 540)"/><path class="cls-4" d="M-233.8-39.38l-1.52-.13-.64,1.84.13.3.39,0,2.12-.88-.48-1.15" transform="translate(960 540)"/><path class="cls-4" d="M-238-38.82l-.26,1.17,2.3.5.39-.09,0-.3-1.1-1.71-1.35.43" transform="translate(960 540)"/><path class="cls-4" d="M-233.65-35.94l-1.36.43-1.07-1.69,0-.32.39-.06,2.27.49-.25,1.15" transform="translate(960 540)"/><path class="cls-4" d="M-236.42-37.71a.87.87,0,0,1,1-.09.5.5,0,0,1,.13.82.9.9,0,0,1-1.05.09.51.51,0,0,1-.11-.82Z" transform="translate(960 540)"/><path class="cls-4" d="M-228.76-35.4l.28,1.19-2.23.64-.41-.08,0-.31.92-1.74,1.46.3" transform="translate(960 540)"/><path class="cls-4" d="M-229.15-32l-1.43.28-.79-1.79.1-.32.38-.05,2.18.76-.44,1.12" transform="translate(960 540)"/><path class="cls-4" d="M-233-35.29l-.46,1.12,2.18.73.41,0,.07-.3-.76-1.8-1.44.29" transform="translate(960 540)"/><path class="cls-4" d="M-230.63-33.2a.52.52,0,0,0,0-.84.92.92,0,0,0-1,0,.52.52,0,0,0,0,.84.84.84,0,0,0,1,0Z" transform="translate(960 540)"/><path class="cls-4" d="M-227.1-29.31s1.28.06,2,.19a5.26,5.26,0,0,1,1.34.59c.15-.09.3-.91-.72-1.71-1-.6-2.25.48-2.25.48a1.58,1.58,0,0,0-.39.45Z" transform="translate(960 540)"/><path class="cls-4" d="M-228.48-31.23l-.74,1,1.94,1.1.23-.17.34-.09-.31-1.9-1.46.07" transform="translate(960 540)"/><path class="cls-4" d="M-226.89-29.1c.36-.15.53-.47.38-.66a.8.8,0,0,0-.92,0c-.36.17-.51.48-.36.67S-227.25-28.92-226.89-29.1Z" transform="translate(960 540)"/></g><g id="inescutcheon"><ellipse class="cls-69" cx="641.1" cy="606.98" rx="41.63" ry="39.53"/><ellipse class="cls-70" cx="641.13" cy="606.9" rx="29.29" ry="28.99"/><g id="fdl"><path class="cls-71" d="M-332.72,47s-3.46,3.2-3.46,6.18a12,12,0,0,0,1.46,5.48,3.89,3.89,0,0,0-3.61-2c-2.12,0-3.84,1.36-3.84,3.07a4.13,4.13,0,0,0,.61,1.66l1.26,2.14a2.7,2.7,0,0,1,2.51-1.23A2.53,2.53,0,0,1-335,64.41a1.21,1.21,0,0,1-.1.54l-3.12,0V67.2h2.79l-2.08,3.48,2.74-.91,2.08,2,2.15-2,2.74.91-2.05-3.48h2.76V65l-3.12,0a1.87,1.87,0,0,1-.05-.54,2.48,2.48,0,0,1,2.71-2.18,2.7,2.7,0,0,1,2.51,1.23l1.26-2.14a4.13,4.13,0,0,0,.61-1.66c0-1.71-1.72-3.07-3.81-3.07a3.82,3.82,0,0,0-3.61,2,12,12,0,0,0,1.46-5.48c0-3-3.56-6.18-3.56-6.18Z" transform="translate(960 540)"/><path class="cls-72" d="M-338.25,67.2h11.16V65h-11.16Z" transform="translate(960 540)"/></g><g id="fdl-2" data-name="fdl"><path class="cls-71" d="M-305.51,47s-3.46,3.2-3.46,6.18a12,12,0,0,0,1.46,5.48,3.86,3.86,0,0,0-3.61-2c-2.12,0-3.84,1.36-3.84,3.07a4,4,0,0,0,.62,1.66l1.25,2.14a2.7,2.7,0,0,1,2.51-1.23,2.54,2.54,0,0,1,2.77,2.18,1.22,1.22,0,0,1-.11.54L-311,65V67.2h2.79l-2.07,3.48,2.74-.91,2.07,2,2.15-2,2.74.91-2.05-3.48h2.77V65L-303,65a1.87,1.87,0,0,1-.05-.54,2.48,2.48,0,0,1,2.72-2.18,2.69,2.69,0,0,1,2.5,1.23l1.26-2.14a4.13,4.13,0,0,0,.61-1.66c0-1.71-1.71-3.07-3.81-3.07a3.82,3.82,0,0,0-3.61,2,12,12,0,0,0,1.46-5.48c0-3-3.56-6.18-3.56-6.18Z" transform="translate(960 540)"/><path class="cls-72" d="M-311,67.2h11.16V65H-311Z" transform="translate(960 540)"/></g><g id="fdl-3" data-name="fdl"><path class="cls-71" d="M-319.13,66.7s-3.46,3.2-3.46,6.18a12,12,0,0,0,1.46,5.48,3.88,3.88,0,0,0-3.61-2c-2.12,0-3.84,1.37-3.84,3.07a4,4,0,0,0,.62,1.66l1.25,2.14A2.71,2.71,0,0,1-324.2,82a2.54,2.54,0,0,1,2.77,2.18,1.22,1.22,0,0,1-.11.54l-3.12,0v2.22h2.79l-2.07,3.48,2.74-.91,2.07,2,2.15-2,2.74.91-2.05-3.48h2.77V84.72l-3.13,0a1.87,1.87,0,0,1-.05-.54A2.49,2.49,0,0,1-314,82a2.68,2.68,0,0,1,2.5,1.23l1.26-2.14a3.94,3.94,0,0,0,.61-1.66c0-1.7-1.71-3.07-3.81-3.07a3.84,3.84,0,0,0-3.61,2,12,12,0,0,0,1.46-5.48c0-3-3.56-6.18-3.56-6.18Z" transform="translate(960 540)"/><path class="cls-72" d="M-324.66,86.94h11.16V84.72h-11.16Z" transform="translate(960 540)"/></g></g></g></g></svg>